<mxfile host="Electron" agent="Mozilla/5.0 (Macintosh; Intel Mac OS X 10_15_7) AppleWebKit/537.36 (KHTML, like Gecko) draw.io/24.7.17 Chrome/128.0.6613.36 Electron/32.0.1 Safari/537.36" version="24.7.17">
  <diagram name="Page-1" id="6u1tHPWYEtg231CvSppE">
    <mxGraphModel dx="413" dy="288" grid="1" gridSize="10" guides="1" tooltips="1" connect="1" arrows="1" fold="1" page="1" pageScale="1" pageWidth="850" pageHeight="1100" background="none" math="1" shadow="0">
      <root>
        <mxCell id="0" />
        <mxCell id="1" parent="0" />
        <mxCell id="ScXmN28w3UK9h5KrgkOw-1" value="" style="rounded=0;whiteSpace=wrap;html=1;fillColor=#008a00;strokeColor=#CCCCCC;fontColor=#ffffff;" parent="1" vertex="1">
          <mxGeometry x="120" y="200" width="20" height="20" as="geometry" />
        </mxCell>
        <mxCell id="ScXmN28w3UK9h5KrgkOw-2" value="" style="rounded=0;whiteSpace=wrap;html=1;fillColor=#60a917;strokeColor=#CCCCCC;fontColor=#ffffff;" parent="1" vertex="1">
          <mxGeometry x="140" y="200" width="20" height="20" as="geometry" />
        </mxCell>
        <mxCell id="ScXmN28w3UK9h5KrgkOw-3" value="" style="rounded=0;whiteSpace=wrap;html=1;fillColor=#60a917;strokeColor=#CCCCCC;fontColor=#ffffff;" parent="1" vertex="1">
          <mxGeometry x="160" y="200" width="20" height="20" as="geometry" />
        </mxCell>
        <mxCell id="ScXmN28w3UK9h5KrgkOw-5" value="" style="rounded=0;whiteSpace=wrap;html=1;fillColor=#60a917;strokeColor=#CCCCCC;fontColor=#ffffff;" parent="1" vertex="1">
          <mxGeometry x="180" y="200" width="20" height="20" as="geometry" />
        </mxCell>
        <mxCell id="ScXmN28w3UK9h5KrgkOw-6" value="" style="rounded=0;whiteSpace=wrap;html=1;fillColor=#60a917;strokeColor=#CCCCCC;fontColor=#ffffff;" parent="1" vertex="1">
          <mxGeometry x="200" y="200" width="20" height="20" as="geometry" />
        </mxCell>
        <mxCell id="ScXmN28w3UK9h5KrgkOw-7" value="" style="rounded=0;whiteSpace=wrap;html=1;fillColor=#60a917;strokeColor=#CCCCCC;fontColor=#ffffff;" parent="1" vertex="1">
          <mxGeometry x="220" y="200" width="20" height="20" as="geometry" />
        </mxCell>
        <mxCell id="ScXmN28w3UK9h5KrgkOw-8" value="" style="rounded=0;whiteSpace=wrap;html=1;fillColor=#60a917;strokeColor=#CCCCCC;fontColor=#ffffff;" parent="1" vertex="1">
          <mxGeometry x="240" y="200" width="20" height="20" as="geometry" />
        </mxCell>
        <mxCell id="ScXmN28w3UK9h5KrgkOw-9" value="" style="rounded=0;whiteSpace=wrap;html=1;fillColor=#60a917;strokeColor=#CCCCCC;fontColor=#ffffff;" parent="1" vertex="1">
          <mxGeometry x="120" y="220" width="20" height="20" as="geometry" />
        </mxCell>
        <mxCell id="ScXmN28w3UK9h5KrgkOw-10" value="" style="rounded=0;whiteSpace=wrap;html=1;fillColor=#008a00;strokeColor=#CCCCCC;fontColor=#ffffff;" parent="1" vertex="1">
          <mxGeometry x="140" y="220" width="20" height="20" as="geometry" />
        </mxCell>
        <mxCell id="ScXmN28w3UK9h5KrgkOw-11" value="" style="rounded=0;whiteSpace=wrap;html=1;fillColor=#60a917;strokeColor=#CCCCCC;fontColor=#ffffff;" parent="1" vertex="1">
          <mxGeometry x="160" y="220" width="20" height="20" as="geometry" />
        </mxCell>
        <mxCell id="ScXmN28w3UK9h5KrgkOw-12" value="" style="rounded=0;whiteSpace=wrap;html=1;fillColor=#60a917;strokeColor=#CCCCCC;fontColor=#ffffff;" parent="1" vertex="1">
          <mxGeometry x="180" y="220" width="20" height="20" as="geometry" />
        </mxCell>
        <mxCell id="ScXmN28w3UK9h5KrgkOw-13" value="" style="rounded=0;whiteSpace=wrap;html=1;fillColor=#60a917;strokeColor=#CCCCCC;fontColor=#ffffff;" parent="1" vertex="1">
          <mxGeometry x="200" y="220" width="20" height="20" as="geometry" />
        </mxCell>
        <mxCell id="ScXmN28w3UK9h5KrgkOw-14" value="" style="rounded=0;whiteSpace=wrap;html=1;fillColor=#60a917;strokeColor=#CCCCCC;fontColor=#ffffff;" parent="1" vertex="1">
          <mxGeometry x="220" y="220" width="20" height="20" as="geometry" />
        </mxCell>
        <mxCell id="ScXmN28w3UK9h5KrgkOw-15" value="" style="rounded=0;whiteSpace=wrap;html=1;fillColor=#60a917;strokeColor=#CCCCCC;fontColor=#ffffff;" parent="1" vertex="1">
          <mxGeometry x="240" y="220" width="20" height="20" as="geometry" />
        </mxCell>
        <mxCell id="ScXmN28w3UK9h5KrgkOw-16" value="" style="rounded=0;whiteSpace=wrap;html=1;fillColor=#60a917;strokeColor=#CCCCCC;fontColor=#ffffff;" parent="1" vertex="1">
          <mxGeometry x="120" y="240" width="20" height="20" as="geometry" />
        </mxCell>
        <mxCell id="ScXmN28w3UK9h5KrgkOw-17" value="" style="rounded=0;whiteSpace=wrap;html=1;fillColor=#60a917;strokeColor=#CCCCCC;fontColor=#ffffff;" parent="1" vertex="1">
          <mxGeometry x="140" y="240" width="20" height="20" as="geometry" />
        </mxCell>
        <mxCell id="ScXmN28w3UK9h5KrgkOw-18" value="" style="rounded=0;whiteSpace=wrap;html=1;fillColor=#008a00;strokeColor=#CCCCCC;fontColor=#ffffff;" parent="1" vertex="1">
          <mxGeometry x="160" y="240" width="20" height="20" as="geometry" />
        </mxCell>
        <mxCell id="ScXmN28w3UK9h5KrgkOw-19" value="" style="rounded=0;whiteSpace=wrap;html=1;fillColor=#60a917;strokeColor=#CCCCCC;fontColor=#ffffff;" parent="1" vertex="1">
          <mxGeometry x="180" y="240" width="20" height="20" as="geometry" />
        </mxCell>
        <mxCell id="ScXmN28w3UK9h5KrgkOw-20" value="" style="rounded=0;whiteSpace=wrap;html=1;fillColor=#60a917;strokeColor=#CCCCCC;fontColor=#ffffff;" parent="1" vertex="1">
          <mxGeometry x="200" y="240" width="20" height="20" as="geometry" />
        </mxCell>
        <mxCell id="ScXmN28w3UK9h5KrgkOw-21" value="" style="rounded=0;whiteSpace=wrap;html=1;fillColor=#60a917;strokeColor=#CCCCCC;fontColor=#ffffff;" parent="1" vertex="1">
          <mxGeometry x="220" y="240" width="20" height="20" as="geometry" />
        </mxCell>
        <mxCell id="ScXmN28w3UK9h5KrgkOw-22" value="" style="rounded=0;whiteSpace=wrap;html=1;fillColor=#60a917;strokeColor=#CCCCCC;fontColor=#ffffff;" parent="1" vertex="1">
          <mxGeometry x="240" y="240" width="20" height="20" as="geometry" />
        </mxCell>
        <mxCell id="ScXmN28w3UK9h5KrgkOw-23" value="" style="rounded=0;whiteSpace=wrap;html=1;fillColor=#60a917;strokeColor=#CCCCCC;fontColor=#ffffff;" parent="1" vertex="1">
          <mxGeometry x="120" y="260" width="20" height="20" as="geometry" />
        </mxCell>
        <mxCell id="ScXmN28w3UK9h5KrgkOw-24" value="" style="rounded=0;whiteSpace=wrap;html=1;fillColor=#60a917;strokeColor=#CCCCCC;fontColor=#ffffff;" parent="1" vertex="1">
          <mxGeometry x="140" y="260" width="20" height="20" as="geometry" />
        </mxCell>
        <mxCell id="ScXmN28w3UK9h5KrgkOw-25" value="" style="rounded=0;whiteSpace=wrap;html=1;fillColor=#60a917;strokeColor=#CCCCCC;fontColor=#ffffff;" parent="1" vertex="1">
          <mxGeometry x="160" y="260" width="20" height="20" as="geometry" />
        </mxCell>
        <mxCell id="ScXmN28w3UK9h5KrgkOw-26" value="" style="rounded=0;whiteSpace=wrap;html=1;fillColor=#008a00;strokeColor=#CCCCCC;fontColor=#ffffff;" parent="1" vertex="1">
          <mxGeometry x="180" y="260" width="20" height="20" as="geometry" />
        </mxCell>
        <mxCell id="ScXmN28w3UK9h5KrgkOw-27" value="" style="rounded=0;whiteSpace=wrap;html=1;fillColor=#60a917;strokeColor=#CCCCCC;fontColor=#ffffff;" parent="1" vertex="1">
          <mxGeometry x="200" y="260" width="20" height="20" as="geometry" />
        </mxCell>
        <mxCell id="ScXmN28w3UK9h5KrgkOw-28" value="" style="rounded=0;whiteSpace=wrap;html=1;fillColor=#60a917;strokeColor=#CCCCCC;fontColor=#ffffff;" parent="1" vertex="1">
          <mxGeometry x="220" y="260" width="20" height="20" as="geometry" />
        </mxCell>
        <mxCell id="ScXmN28w3UK9h5KrgkOw-29" value="" style="rounded=0;whiteSpace=wrap;html=1;fillColor=#60a917;strokeColor=#CCCCCC;fontColor=#ffffff;" parent="1" vertex="1">
          <mxGeometry x="240" y="260" width="20" height="20" as="geometry" />
        </mxCell>
        <mxCell id="ScXmN28w3UK9h5KrgkOw-30" value="" style="rounded=0;whiteSpace=wrap;html=1;fillColor=#60a917;strokeColor=#CCCCCC;fontColor=#ffffff;" parent="1" vertex="1">
          <mxGeometry x="120" y="280" width="20" height="20" as="geometry" />
        </mxCell>
        <mxCell id="ScXmN28w3UK9h5KrgkOw-31" value="" style="rounded=0;whiteSpace=wrap;html=1;fillColor=#60a917;strokeColor=#CCCCCC;fontColor=#ffffff;" parent="1" vertex="1">
          <mxGeometry x="140" y="280" width="20" height="20" as="geometry" />
        </mxCell>
        <mxCell id="ScXmN28w3UK9h5KrgkOw-32" value="" style="rounded=0;whiteSpace=wrap;html=1;fillColor=#60a917;strokeColor=#CCCCCC;fontColor=#ffffff;" parent="1" vertex="1">
          <mxGeometry x="160" y="280" width="20" height="20" as="geometry" />
        </mxCell>
        <mxCell id="ScXmN28w3UK9h5KrgkOw-33" value="" style="rounded=0;whiteSpace=wrap;html=1;fillColor=#60a917;strokeColor=#CCCCCC;fontColor=#ffffff;" parent="1" vertex="1">
          <mxGeometry x="180" y="280" width="20" height="20" as="geometry" />
        </mxCell>
        <mxCell id="ScXmN28w3UK9h5KrgkOw-34" value="" style="rounded=0;whiteSpace=wrap;html=1;fillColor=#008a00;strokeColor=#CCCCCC;fontColor=#ffffff;" parent="1" vertex="1">
          <mxGeometry x="200" y="280" width="20" height="20" as="geometry" />
        </mxCell>
        <mxCell id="ScXmN28w3UK9h5KrgkOw-35" value="" style="rounded=0;whiteSpace=wrap;html=1;fillColor=#60a917;strokeColor=#CCCCCC;fontColor=#ffffff;" parent="1" vertex="1">
          <mxGeometry x="220" y="280" width="20" height="20" as="geometry" />
        </mxCell>
        <mxCell id="ScXmN28w3UK9h5KrgkOw-36" value="" style="rounded=0;whiteSpace=wrap;html=1;fillColor=#60a917;strokeColor=#CCCCCC;fontColor=#ffffff;" parent="1" vertex="1">
          <mxGeometry x="240" y="280" width="20" height="20" as="geometry" />
        </mxCell>
        <mxCell id="ScXmN28w3UK9h5KrgkOw-37" value="" style="rounded=0;whiteSpace=wrap;html=1;fillColor=#60a917;strokeColor=#CCCCCC;fontColor=#ffffff;" parent="1" vertex="1">
          <mxGeometry x="120" y="300" width="20" height="20" as="geometry" />
        </mxCell>
        <mxCell id="ScXmN28w3UK9h5KrgkOw-38" value="" style="rounded=0;whiteSpace=wrap;html=1;fillColor=#60a917;strokeColor=#CCCCCC;fontColor=#ffffff;" parent="1" vertex="1">
          <mxGeometry x="140" y="300" width="20" height="20" as="geometry" />
        </mxCell>
        <mxCell id="ScXmN28w3UK9h5KrgkOw-39" value="" style="rounded=0;whiteSpace=wrap;html=1;fillColor=#60a917;strokeColor=#CCCCCC;fontColor=#ffffff;" parent="1" vertex="1">
          <mxGeometry x="160" y="300" width="20" height="20" as="geometry" />
        </mxCell>
        <mxCell id="ScXmN28w3UK9h5KrgkOw-40" value="" style="rounded=0;whiteSpace=wrap;html=1;fillColor=#60a917;strokeColor=#CCCCCC;fontColor=#ffffff;" parent="1" vertex="1">
          <mxGeometry x="180" y="300" width="20" height="20" as="geometry" />
        </mxCell>
        <mxCell id="ScXmN28w3UK9h5KrgkOw-41" value="" style="rounded=0;whiteSpace=wrap;html=1;fillColor=#60a917;strokeColor=#CCCCCC;fontColor=#ffffff;" parent="1" vertex="1">
          <mxGeometry x="200" y="300" width="20" height="20" as="geometry" />
        </mxCell>
        <mxCell id="ScXmN28w3UK9h5KrgkOw-42" value="" style="rounded=0;whiteSpace=wrap;html=1;fillColor=#008a00;strokeColor=#CCCCCC;fontColor=#ffffff;" parent="1" vertex="1">
          <mxGeometry x="220" y="300" width="20" height="20" as="geometry" />
        </mxCell>
        <mxCell id="ScXmN28w3UK9h5KrgkOw-43" value="" style="rounded=0;whiteSpace=wrap;html=1;fillColor=#60a917;strokeColor=#CCCCCC;fontColor=#ffffff;" parent="1" vertex="1">
          <mxGeometry x="240" y="300" width="20" height="20" as="geometry" />
        </mxCell>
        <mxCell id="ScXmN28w3UK9h5KrgkOw-44" value="" style="rounded=0;whiteSpace=wrap;html=1;fillColor=#60a917;strokeColor=#CCCCCC;fontColor=#ffffff;" parent="1" vertex="1">
          <mxGeometry x="120" y="320" width="20" height="20" as="geometry" />
        </mxCell>
        <mxCell id="ScXmN28w3UK9h5KrgkOw-45" value="" style="rounded=0;whiteSpace=wrap;html=1;fillColor=#60a917;strokeColor=#CCCCCC;fontColor=#ffffff;" parent="1" vertex="1">
          <mxGeometry x="140" y="320" width="20" height="20" as="geometry" />
        </mxCell>
        <mxCell id="ScXmN28w3UK9h5KrgkOw-46" value="" style="rounded=0;whiteSpace=wrap;html=1;fillColor=#60a917;strokeColor=#CCCCCC;fontColor=#ffffff;" parent="1" vertex="1">
          <mxGeometry x="160" y="320" width="20" height="20" as="geometry" />
        </mxCell>
        <mxCell id="ScXmN28w3UK9h5KrgkOw-47" value="" style="rounded=0;whiteSpace=wrap;html=1;fillColor=#60a917;strokeColor=#CCCCCC;fontColor=#ffffff;" parent="1" vertex="1">
          <mxGeometry x="180" y="320" width="20" height="20" as="geometry" />
        </mxCell>
        <mxCell id="ScXmN28w3UK9h5KrgkOw-48" value="" style="rounded=0;whiteSpace=wrap;html=1;fillColor=#60a917;strokeColor=#CCCCCC;fontColor=#ffffff;" parent="1" vertex="1">
          <mxGeometry x="200" y="320" width="20" height="20" as="geometry" />
        </mxCell>
        <mxCell id="ScXmN28w3UK9h5KrgkOw-49" value="" style="rounded=0;whiteSpace=wrap;html=1;fillColor=#60a917;strokeColor=#CCCCCC;fontColor=#ffffff;" parent="1" vertex="1">
          <mxGeometry x="220" y="320" width="20" height="20" as="geometry" />
        </mxCell>
        <mxCell id="ScXmN28w3UK9h5KrgkOw-50" value="" style="rounded=0;whiteSpace=wrap;html=1;fillColor=#008a00;strokeColor=#CCCCCC;fontColor=#ffffff;" parent="1" vertex="1">
          <mxGeometry x="240" y="320" width="20" height="20" as="geometry" />
        </mxCell>
        <mxCell id="ScXmN28w3UK9h5KrgkOw-100" value="Full Self-Attention" style="text;html=1;align=center;verticalAlign=middle;whiteSpace=wrap;rounded=0;fontFamily=Segoe UI;fontStyle=1" parent="1" vertex="1">
          <mxGeometry x="120" y="340" width="140" height="20" as="geometry" />
        </mxCell>
        <mxCell id="ScXmN28w3UK9h5KrgkOw-154" value="" style="rounded=0;whiteSpace=wrap;html=1;strokeColor=#CCCCCC;fillColor=#008a00;fontColor=#ffffff;" parent="1" vertex="1">
          <mxGeometry x="320" y="200" width="20" height="20" as="geometry" />
        </mxCell>
        <mxCell id="ScXmN28w3UK9h5KrgkOw-155" value="" style="rounded=0;whiteSpace=wrap;html=1;strokeColor=#CCCCCC;" parent="1" vertex="1">
          <mxGeometry x="340" y="200" width="20" height="20" as="geometry" />
        </mxCell>
        <mxCell id="ScXmN28w3UK9h5KrgkOw-156" value="" style="rounded=0;whiteSpace=wrap;html=1;strokeColor=#CCCCCC;" parent="1" vertex="1">
          <mxGeometry x="360" y="200" width="20" height="20" as="geometry" />
        </mxCell>
        <mxCell id="ScXmN28w3UK9h5KrgkOw-157" value="" style="rounded=0;whiteSpace=wrap;html=1;strokeColor=#CCCCCC;" parent="1" vertex="1">
          <mxGeometry x="380" y="200" width="20" height="20" as="geometry" />
        </mxCell>
        <mxCell id="ScXmN28w3UK9h5KrgkOw-158" value="" style="rounded=0;whiteSpace=wrap;html=1;strokeColor=#CCCCCC;" parent="1" vertex="1">
          <mxGeometry x="400" y="200" width="20" height="20" as="geometry" />
        </mxCell>
        <mxCell id="ScXmN28w3UK9h5KrgkOw-159" value="" style="rounded=0;whiteSpace=wrap;html=1;strokeColor=#CCCCCC;" parent="1" vertex="1">
          <mxGeometry x="420" y="200" width="20" height="20" as="geometry" />
        </mxCell>
        <mxCell id="ScXmN28w3UK9h5KrgkOw-160" value="" style="rounded=0;whiteSpace=wrap;html=1;strokeColor=#CCCCCC;" parent="1" vertex="1">
          <mxGeometry x="440" y="200" width="20" height="20" as="geometry" />
        </mxCell>
        <mxCell id="ScXmN28w3UK9h5KrgkOw-161" value="" style="rounded=0;whiteSpace=wrap;html=1;strokeColor=#CCCCCC;fillColor=#60a917;fontColor=#ffffff;" parent="1" vertex="1">
          <mxGeometry x="320" y="220" width="20" height="20" as="geometry" />
        </mxCell>
        <mxCell id="ScXmN28w3UK9h5KrgkOw-162" value="" style="rounded=0;whiteSpace=wrap;html=1;strokeColor=#CCCCCC;fillColor=#008a00;fontColor=#ffffff;" parent="1" vertex="1">
          <mxGeometry x="340" y="220" width="20" height="20" as="geometry" />
        </mxCell>
        <mxCell id="ScXmN28w3UK9h5KrgkOw-163" value="" style="rounded=0;whiteSpace=wrap;html=1;strokeColor=#CCCCCC;" parent="1" vertex="1">
          <mxGeometry x="360" y="220" width="20" height="20" as="geometry" />
        </mxCell>
        <mxCell id="ScXmN28w3UK9h5KrgkOw-164" value="" style="rounded=0;whiteSpace=wrap;html=1;strokeColor=#CCCCCC;" parent="1" vertex="1">
          <mxGeometry x="380" y="220" width="20" height="20" as="geometry" />
        </mxCell>
        <mxCell id="ScXmN28w3UK9h5KrgkOw-165" value="" style="rounded=0;whiteSpace=wrap;html=1;strokeColor=#CCCCCC;" parent="1" vertex="1">
          <mxGeometry x="400" y="220" width="20" height="20" as="geometry" />
        </mxCell>
        <mxCell id="ScXmN28w3UK9h5KrgkOw-166" value="" style="rounded=0;whiteSpace=wrap;html=1;strokeColor=#CCCCCC;" parent="1" vertex="1">
          <mxGeometry x="420" y="220" width="20" height="20" as="geometry" />
        </mxCell>
        <mxCell id="ScXmN28w3UK9h5KrgkOw-167" value="" style="rounded=0;whiteSpace=wrap;html=1;strokeColor=#CCCCCC;" parent="1" vertex="1">
          <mxGeometry x="440" y="220" width="20" height="20" as="geometry" />
        </mxCell>
        <mxCell id="ScXmN28w3UK9h5KrgkOw-168" value="" style="rounded=0;whiteSpace=wrap;html=1;strokeColor=#CCCCCC;fillColor=#60a917;fontColor=#ffffff;" parent="1" vertex="1">
          <mxGeometry x="320" y="240" width="20" height="20" as="geometry" />
        </mxCell>
        <mxCell id="ScXmN28w3UK9h5KrgkOw-169" value="" style="rounded=0;whiteSpace=wrap;html=1;strokeColor=#CCCCCC;fillColor=#60a917;fontColor=#ffffff;" parent="1" vertex="1">
          <mxGeometry x="340" y="240" width="20" height="20" as="geometry" />
        </mxCell>
        <mxCell id="ScXmN28w3UK9h5KrgkOw-170" value="" style="rounded=0;whiteSpace=wrap;html=1;strokeColor=#CCCCCC;fillColor=#008a00;fontColor=#ffffff;" parent="1" vertex="1">
          <mxGeometry x="360" y="240" width="20" height="20" as="geometry" />
        </mxCell>
        <mxCell id="ScXmN28w3UK9h5KrgkOw-171" value="" style="rounded=0;whiteSpace=wrap;html=1;strokeColor=#CCCCCC;" parent="1" vertex="1">
          <mxGeometry x="380" y="240" width="20" height="20" as="geometry" />
        </mxCell>
        <mxCell id="ScXmN28w3UK9h5KrgkOw-172" value="" style="rounded=0;whiteSpace=wrap;html=1;strokeColor=#CCCCCC;" parent="1" vertex="1">
          <mxGeometry x="400" y="240" width="20" height="20" as="geometry" />
        </mxCell>
        <mxCell id="ScXmN28w3UK9h5KrgkOw-173" value="" style="rounded=0;whiteSpace=wrap;html=1;strokeColor=#CCCCCC;" parent="1" vertex="1">
          <mxGeometry x="420" y="240" width="20" height="20" as="geometry" />
        </mxCell>
        <mxCell id="ScXmN28w3UK9h5KrgkOw-174" value="" style="rounded=0;whiteSpace=wrap;html=1;strokeColor=#CCCCCC;" parent="1" vertex="1">
          <mxGeometry x="440" y="240" width="20" height="20" as="geometry" />
        </mxCell>
        <mxCell id="ScXmN28w3UK9h5KrgkOw-175" value="" style="rounded=0;whiteSpace=wrap;html=1;strokeColor=#CCCCCC;" parent="1" vertex="1">
          <mxGeometry x="320" y="260" width="20" height="20" as="geometry" />
        </mxCell>
        <mxCell id="ScXmN28w3UK9h5KrgkOw-176" value="" style="rounded=0;whiteSpace=wrap;html=1;strokeColor=#CCCCCC;fillColor=#60a917;fontColor=#ffffff;" parent="1" vertex="1">
          <mxGeometry x="340" y="260" width="20" height="20" as="geometry" />
        </mxCell>
        <mxCell id="ScXmN28w3UK9h5KrgkOw-177" value="" style="rounded=0;whiteSpace=wrap;html=1;strokeColor=#CCCCCC;fillColor=#60a917;fontColor=#ffffff;" parent="1" vertex="1">
          <mxGeometry x="360" y="260" width="20" height="20" as="geometry" />
        </mxCell>
        <mxCell id="ScXmN28w3UK9h5KrgkOw-178" value="" style="rounded=0;whiteSpace=wrap;html=1;strokeColor=#CCCCCC;fillColor=#008a00;fontColor=#ffffff;" parent="1" vertex="1">
          <mxGeometry x="380" y="260" width="20" height="20" as="geometry" />
        </mxCell>
        <mxCell id="ScXmN28w3UK9h5KrgkOw-179" value="" style="rounded=0;whiteSpace=wrap;html=1;strokeColor=#CCCCCC;" parent="1" vertex="1">
          <mxGeometry x="400" y="260" width="20" height="20" as="geometry" />
        </mxCell>
        <mxCell id="ScXmN28w3UK9h5KrgkOw-180" value="" style="rounded=0;whiteSpace=wrap;html=1;strokeColor=#CCCCCC;" parent="1" vertex="1">
          <mxGeometry x="420" y="260" width="20" height="20" as="geometry" />
        </mxCell>
        <mxCell id="ScXmN28w3UK9h5KrgkOw-181" value="" style="rounded=0;whiteSpace=wrap;html=1;strokeColor=#CCCCCC;" parent="1" vertex="1">
          <mxGeometry x="440" y="260" width="20" height="20" as="geometry" />
        </mxCell>
        <mxCell id="ScXmN28w3UK9h5KrgkOw-182" value="" style="rounded=0;whiteSpace=wrap;html=1;strokeColor=#CCCCCC;" parent="1" vertex="1">
          <mxGeometry x="320" y="280" width="20" height="20" as="geometry" />
        </mxCell>
        <mxCell id="ScXmN28w3UK9h5KrgkOw-183" value="" style="rounded=0;whiteSpace=wrap;html=1;strokeColor=#CCCCCC;" parent="1" vertex="1">
          <mxGeometry x="340" y="280" width="20" height="20" as="geometry" />
        </mxCell>
        <mxCell id="ScXmN28w3UK9h5KrgkOw-184" value="" style="rounded=0;whiteSpace=wrap;html=1;strokeColor=#CCCCCC;fillColor=#60a917;fontColor=#ffffff;" parent="1" vertex="1">
          <mxGeometry x="360" y="280" width="20" height="20" as="geometry" />
        </mxCell>
        <mxCell id="ScXmN28w3UK9h5KrgkOw-185" value="" style="rounded=0;whiteSpace=wrap;html=1;strokeColor=#CCCCCC;fillColor=#60a917;fontColor=#ffffff;" parent="1" vertex="1">
          <mxGeometry x="380" y="280" width="20" height="20" as="geometry" />
        </mxCell>
        <mxCell id="ScXmN28w3UK9h5KrgkOw-186" value="" style="rounded=0;whiteSpace=wrap;html=1;strokeColor=#CCCCCC;fillColor=#008a00;fontColor=#ffffff;" parent="1" vertex="1">
          <mxGeometry x="400" y="280" width="20" height="20" as="geometry" />
        </mxCell>
        <mxCell id="ScXmN28w3UK9h5KrgkOw-187" value="" style="rounded=0;whiteSpace=wrap;html=1;strokeColor=#CCCCCC;" parent="1" vertex="1">
          <mxGeometry x="420" y="280" width="20" height="20" as="geometry" />
        </mxCell>
        <mxCell id="ScXmN28w3UK9h5KrgkOw-188" value="" style="rounded=0;whiteSpace=wrap;html=1;strokeColor=#CCCCCC;" parent="1" vertex="1">
          <mxGeometry x="440" y="280" width="20" height="20" as="geometry" />
        </mxCell>
        <mxCell id="ScXmN28w3UK9h5KrgkOw-189" value="" style="rounded=0;whiteSpace=wrap;html=1;strokeColor=#CCCCCC;" parent="1" vertex="1">
          <mxGeometry x="320" y="300" width="20" height="20" as="geometry" />
        </mxCell>
        <mxCell id="ScXmN28w3UK9h5KrgkOw-190" value="" style="rounded=0;whiteSpace=wrap;html=1;strokeColor=#CCCCCC;" parent="1" vertex="1">
          <mxGeometry x="340" y="300" width="20" height="20" as="geometry" />
        </mxCell>
        <mxCell id="ScXmN28w3UK9h5KrgkOw-191" value="" style="rounded=0;whiteSpace=wrap;html=1;strokeColor=#CCCCCC;" parent="1" vertex="1">
          <mxGeometry x="360" y="300" width="20" height="20" as="geometry" />
        </mxCell>
        <mxCell id="ScXmN28w3UK9h5KrgkOw-192" value="" style="rounded=0;whiteSpace=wrap;html=1;strokeColor=#CCCCCC;fillColor=#60a917;fontColor=#ffffff;" parent="1" vertex="1">
          <mxGeometry x="380" y="300" width="20" height="20" as="geometry" />
        </mxCell>
        <mxCell id="ScXmN28w3UK9h5KrgkOw-193" value="" style="rounded=0;whiteSpace=wrap;html=1;strokeColor=#CCCCCC;fillColor=#60a917;fontColor=#ffffff;" parent="1" vertex="1">
          <mxGeometry x="400" y="300" width="20" height="20" as="geometry" />
        </mxCell>
        <mxCell id="ScXmN28w3UK9h5KrgkOw-194" value="" style="rounded=0;whiteSpace=wrap;html=1;strokeColor=#CCCCCC;fillColor=#008a00;fontColor=#ffffff;" parent="1" vertex="1">
          <mxGeometry x="420" y="300" width="20" height="20" as="geometry" />
        </mxCell>
        <mxCell id="ScXmN28w3UK9h5KrgkOw-195" value="" style="rounded=0;whiteSpace=wrap;html=1;strokeColor=#CCCCCC;" parent="1" vertex="1">
          <mxGeometry x="440" y="300" width="20" height="20" as="geometry" />
        </mxCell>
        <mxCell id="ScXmN28w3UK9h5KrgkOw-196" value="" style="rounded=0;whiteSpace=wrap;html=1;strokeColor=#CCCCCC;" parent="1" vertex="1">
          <mxGeometry x="320" y="320" width="20" height="20" as="geometry" />
        </mxCell>
        <mxCell id="ScXmN28w3UK9h5KrgkOw-197" value="" style="rounded=0;whiteSpace=wrap;html=1;strokeColor=#CCCCCC;" parent="1" vertex="1">
          <mxGeometry x="340" y="320" width="20" height="20" as="geometry" />
        </mxCell>
        <mxCell id="ScXmN28w3UK9h5KrgkOw-198" value="" style="rounded=0;whiteSpace=wrap;html=1;strokeColor=#CCCCCC;" parent="1" vertex="1">
          <mxGeometry x="360" y="320" width="20" height="20" as="geometry" />
        </mxCell>
        <mxCell id="ScXmN28w3UK9h5KrgkOw-199" value="" style="rounded=0;whiteSpace=wrap;html=1;strokeColor=#CCCCCC;" parent="1" vertex="1">
          <mxGeometry x="380" y="320" width="20" height="20" as="geometry" />
        </mxCell>
        <mxCell id="ScXmN28w3UK9h5KrgkOw-200" value="" style="rounded=0;whiteSpace=wrap;html=1;strokeColor=#CCCCCC;fillColor=#60a917;fontColor=#ffffff;" parent="1" vertex="1">
          <mxGeometry x="400" y="320" width="20" height="20" as="geometry" />
        </mxCell>
        <mxCell id="ScXmN28w3UK9h5KrgkOw-201" value="" style="rounded=0;whiteSpace=wrap;html=1;strokeColor=#CCCCCC;fillColor=#60a917;fontColor=#ffffff;" parent="1" vertex="1">
          <mxGeometry x="420" y="320" width="20" height="20" as="geometry" />
        </mxCell>
        <mxCell id="ScXmN28w3UK9h5KrgkOw-202" value="" style="rounded=0;whiteSpace=wrap;html=1;strokeColor=#CCCCCC;fillColor=#008a00;fontColor=#ffffff;" parent="1" vertex="1">
          <mxGeometry x="440" y="320" width="20" height="20" as="geometry" />
        </mxCell>
        <mxCell id="ScXmN28w3UK9h5KrgkOw-203" value="Cross-Local Attention" style="text;html=1;align=center;verticalAlign=middle;whiteSpace=wrap;rounded=0;fontFamily=Segoe UI;fontStyle=1" parent="1" vertex="1">
          <mxGeometry x="320" y="340" width="140" height="20" as="geometry" />
        </mxCell>
        <mxCell id="ScXmN28w3UK9h5KrgkOw-204" value="" style="rounded=1;whiteSpace=wrap;html=1;fillColor=#60a917;strokeColor=#2D7600;container=0;fontColor=#ffffff;" parent="1" vertex="1">
          <mxGeometry x="325" y="120" width="10" height="10" as="geometry" />
        </mxCell>
        <mxCell id="ScXmN28w3UK9h5KrgkOw-205" value="" style="rounded=1;whiteSpace=wrap;html=1;fillColor=#60a917;strokeColor=#2D7600;container=0;fontColor=#ffffff;" parent="1" vertex="1">
          <mxGeometry x="325" y="110" width="10" height="10" as="geometry" />
        </mxCell>
        <mxCell id="ScXmN28w3UK9h5KrgkOw-206" value="" style="rounded=1;whiteSpace=wrap;html=1;fillColor=#60a917;strokeColor=#2D7600;container=0;fontColor=#ffffff;" parent="1" vertex="1">
          <mxGeometry x="325" y="100" width="10" height="10" as="geometry" />
        </mxCell>
        <mxCell id="ScXmN28w3UK9h5KrgkOw-207" value="" style="rounded=1;whiteSpace=wrap;html=1;fillColor=#60a917;strokeColor=#2D7600;container=0;fontColor=#ffffff;" parent="1" vertex="1">
          <mxGeometry x="325" y="90" width="10" height="10" as="geometry" />
        </mxCell>
        <mxCell id="ScXmN28w3UK9h5KrgkOw-208" value="" style="rounded=1;whiteSpace=wrap;html=1;fillColor=#60a917;strokeColor=#2D7600;container=0;fontColor=#ffffff;" parent="1" vertex="1">
          <mxGeometry x="325" y="80" width="10" height="10" as="geometry" />
        </mxCell>
        <mxCell id="ScXmN28w3UK9h5KrgkOw-209" value="" style="rounded=1;whiteSpace=wrap;html=1;fillColor=#D11200;strokeColor=#B20000;container=0;fontColor=#ffffff;" parent="1" vertex="1">
          <mxGeometry x="325" y="160" width="10" height="10" as="geometry" />
        </mxCell>
        <mxCell id="ScXmN28w3UK9h5KrgkOw-210" value="" style="rounded=1;whiteSpace=wrap;html=1;fillColor=#D11200;strokeColor=#B20000;container=0;fontColor=#ffffff;" parent="1" vertex="1">
          <mxGeometry x="325" y="170" width="10" height="10" as="geometry" />
        </mxCell>
        <mxCell id="ScXmN28w3UK9h5KrgkOw-211" value="" style="rounded=1;whiteSpace=wrap;html=1;fillColor=#0000FF;strokeColor=#0000CC;container=0;fontColor=#ffffff;" parent="1" vertex="1">
          <mxGeometry x="325" y="150" width="10" height="10" as="geometry" />
        </mxCell>
        <mxCell id="ScXmN28w3UK9h5KrgkOw-212" value="" style="rounded=1;whiteSpace=wrap;html=1;fillColor=#0000FF;strokeColor=#0000CC;container=0;fontColor=#ffffff;" parent="1" vertex="1">
          <mxGeometry x="325" y="140" width="10" height="10" as="geometry" />
        </mxCell>
        <mxCell id="ScXmN28w3UK9h5KrgkOw-213" value="" style="rounded=1;whiteSpace=wrap;html=1;fillColor=#0000FF;strokeColor=#0000CC;container=0;fontColor=#ffffff;" parent="1" vertex="1">
          <mxGeometry x="325" y="130" width="10" height="10" as="geometry" />
        </mxCell>
        <mxCell id="ScXmN28w3UK9h5KrgkOw-214" value="" style="rounded=1;whiteSpace=wrap;html=1;fillColor=#fa6800;strokeColor=#C73500;container=0;fontColor=#000000;" parent="1" vertex="1">
          <mxGeometry x="325" y="60" width="10" height="10" as="geometry" />
        </mxCell>
        <mxCell id="ScXmN28w3UK9h5KrgkOw-215" value="" style="rounded=1;whiteSpace=wrap;html=1;fillColor=#fa6800;strokeColor=#C73500;container=0;fontColor=#000000;" parent="1" vertex="1">
          <mxGeometry x="325" y="70" width="10" height="10" as="geometry" />
        </mxCell>
        <mxCell id="ScXmN28w3UK9h5KrgkOw-222" value="$$\mathbf{s}$$" style="text;html=1;align=center;verticalAlign=middle;whiteSpace=wrap;rounded=0;" parent="1" vertex="1">
          <mxGeometry x="300" y="130" width="20" height="30" as="geometry" />
        </mxCell>
        <mxCell id="ScXmN28w3UK9h5KrgkOw-223" value="$$\mathbf{e}$$" style="text;html=1;align=center;verticalAlign=middle;whiteSpace=wrap;rounded=0;" parent="1" vertex="1">
          <mxGeometry x="300" y="160" width="20" height="20" as="geometry" />
        </mxCell>
        <mxCell id="ScXmN28w3UK9h5KrgkOw-224" value="$$\mathbf{x}_t$$" style="text;html=1;align=center;verticalAlign=middle;whiteSpace=wrap;rounded=0;" parent="1" vertex="1">
          <mxGeometry x="300" y="80" width="20" height="50" as="geometry" />
        </mxCell>
        <mxCell id="ScXmN28w3UK9h5KrgkOw-225" value="$$\mathbf{a}$$" style="text;html=1;align=center;verticalAlign=middle;whiteSpace=wrap;rounded=0;" parent="1" vertex="1">
          <mxGeometry x="300" y="60" width="20" height="20" as="geometry" />
        </mxCell>
        <mxCell id="ScXmN28w3UK9h5KrgkOw-226" value="" style="rounded=1;whiteSpace=wrap;html=1;fillColor=#1ba1e2;strokeColor=#006EAF;container=0;fontColor=#ffffff;" parent="1" vertex="1">
          <mxGeometry x="125" y="120" width="10" height="10" as="geometry" />
        </mxCell>
        <mxCell id="ScXmN28w3UK9h5KrgkOw-227" value="" style="rounded=1;whiteSpace=wrap;html=1;fillColor=#1ba1e2;strokeColor=#006EAF;container=0;fontColor=#ffffff;" parent="1" vertex="1">
          <mxGeometry x="125" y="110" width="10" height="10" as="geometry" />
        </mxCell>
        <mxCell id="ScXmN28w3UK9h5KrgkOw-228" value="" style="rounded=1;whiteSpace=wrap;html=1;fillColor=#1ba1e2;strokeColor=#006EAF;container=0;fontColor=#ffffff;" parent="1" vertex="1">
          <mxGeometry x="125" y="100" width="10" height="10" as="geometry" />
        </mxCell>
        <mxCell id="ScXmN28w3UK9h5KrgkOw-229" value="" style="rounded=1;whiteSpace=wrap;html=1;fillColor=#1ba1e2;strokeColor=#006EAF;container=0;fontColor=#ffffff;" parent="1" vertex="1">
          <mxGeometry x="125" y="90" width="10" height="10" as="geometry" />
        </mxCell>
        <mxCell id="ScXmN28w3UK9h5KrgkOw-230" value="" style="rounded=1;whiteSpace=wrap;html=1;fillColor=#1ba1e2;strokeColor=#006EAF;container=0;fontColor=#ffffff;" parent="1" vertex="1">
          <mxGeometry x="125" y="80" width="10" height="10" as="geometry" />
        </mxCell>
        <mxCell id="ScXmN28w3UK9h5KrgkOw-231" value="" style="rounded=1;whiteSpace=wrap;html=1;fillColor=#d80073;strokeColor=#A50040;container=0;fontColor=#ffffff;" parent="1" vertex="1">
          <mxGeometry x="125" y="160" width="10" height="10" as="geometry" />
        </mxCell>
        <mxCell id="ScXmN28w3UK9h5KrgkOw-232" value="" style="rounded=1;whiteSpace=wrap;html=1;fillColor=#d80073;strokeColor=#A50040;container=0;fontColor=#ffffff;" parent="1" vertex="1">
          <mxGeometry x="125" y="170" width="10" height="10" as="geometry" />
        </mxCell>
        <mxCell id="ScXmN28w3UK9h5KrgkOw-233" value="" style="rounded=1;whiteSpace=wrap;html=1;fillColor=#1ba1e2;strokeColor=#006EAF;container=0;fontColor=#ffffff;" parent="1" vertex="1">
          <mxGeometry x="125" y="150" width="10" height="10" as="geometry" />
        </mxCell>
        <mxCell id="ScXmN28w3UK9h5KrgkOw-234" value="" style="rounded=1;whiteSpace=wrap;html=1;fillColor=#1ba1e2;strokeColor=#006EAF;container=0;fontColor=#ffffff;" parent="1" vertex="1">
          <mxGeometry x="125" y="140" width="10" height="10" as="geometry" />
        </mxCell>
        <mxCell id="ScXmN28w3UK9h5KrgkOw-235" value="" style="rounded=1;whiteSpace=wrap;html=1;fillColor=#1ba1e2;strokeColor=#006EAF;container=0;fontColor=#ffffff;" parent="1" vertex="1">
          <mxGeometry x="125" y="130" width="10" height="10" as="geometry" />
        </mxCell>
        <mxCell id="ScXmN28w3UK9h5KrgkOw-237" value="" style="rounded=1;whiteSpace=wrap;html=1;fillColor=#1ba1e2;strokeColor=#006EAF;container=0;fontColor=#ffffff;" parent="1" vertex="1">
          <mxGeometry x="125" y="70" width="10" height="10" as="geometry" />
        </mxCell>
        <mxCell id="ScXmN28w3UK9h5KrgkOw-238" value="$$\mathbf{z}$$" style="text;html=1;align=center;verticalAlign=middle;whiteSpace=wrap;rounded=0;" parent="1" vertex="1">
          <mxGeometry x="110" y="145" width="15" height="20" as="geometry" />
        </mxCell>
        <mxCell id="ScXmN28w3UK9h5KrgkOw-239" value="$$\mathbf{h}$$" style="text;html=1;align=center;verticalAlign=middle;whiteSpace=wrap;rounded=0;" parent="1" vertex="1">
          <mxGeometry x="110" y="80" width="15" height="20" as="geometry" />
        </mxCell>
        <mxCell id="ScXmN28w3UK9h5KrgkOw-241" value="$$\dots$$" style="text;html=1;align=center;verticalAlign=middle;whiteSpace=wrap;rounded=0;" parent="1" vertex="1">
          <mxGeometry x="240" y="100" width="20" height="20" as="geometry" />
        </mxCell>
        <mxCell id="ScXmN28w3UK9h5KrgkOw-242" value="$$\dots$$" style="text;html=1;align=center;verticalAlign=middle;whiteSpace=wrap;rounded=0;" parent="1" vertex="1">
          <mxGeometry x="440" y="110" width="20" height="20" as="geometry" />
        </mxCell>
        <mxCell id="ScXmN28w3UK9h5KrgkOw-249" value="" style="rounded=1;whiteSpace=wrap;html=1;fillColor=#60a917;strokeColor=#2D7600;container=0;fontColor=#ffffff;" parent="1" vertex="1">
          <mxGeometry x="345" y="120" width="10" height="10" as="geometry" />
        </mxCell>
        <mxCell id="ScXmN28w3UK9h5KrgkOw-250" value="" style="rounded=1;whiteSpace=wrap;html=1;fillColor=#60a917;strokeColor=#2D7600;container=0;fontColor=#ffffff;" parent="1" vertex="1">
          <mxGeometry x="345" y="110" width="10" height="10" as="geometry" />
        </mxCell>
        <mxCell id="ScXmN28w3UK9h5KrgkOw-251" value="" style="rounded=1;whiteSpace=wrap;html=1;fillColor=#60a917;strokeColor=#2D7600;container=0;fontColor=#ffffff;" parent="1" vertex="1">
          <mxGeometry x="345" y="100" width="10" height="10" as="geometry" />
        </mxCell>
        <mxCell id="ScXmN28w3UK9h5KrgkOw-252" value="" style="rounded=1;whiteSpace=wrap;html=1;fillColor=#60a917;strokeColor=#2D7600;container=0;fontColor=#ffffff;" parent="1" vertex="1">
          <mxGeometry x="345" y="90" width="10" height="10" as="geometry" />
        </mxCell>
        <mxCell id="ScXmN28w3UK9h5KrgkOw-253" value="" style="rounded=1;whiteSpace=wrap;html=1;fillColor=#60a917;strokeColor=#2D7600;container=0;fontColor=#ffffff;" parent="1" vertex="1">
          <mxGeometry x="345" y="80" width="10" height="10" as="geometry" />
        </mxCell>
        <mxCell id="ScXmN28w3UK9h5KrgkOw-254" value="" style="rounded=1;whiteSpace=wrap;html=1;fillColor=#D11200;strokeColor=#B20000;container=0;fontColor=#ffffff;" parent="1" vertex="1">
          <mxGeometry x="345" y="160" width="10" height="10" as="geometry" />
        </mxCell>
        <mxCell id="ScXmN28w3UK9h5KrgkOw-255" value="" style="rounded=1;whiteSpace=wrap;html=1;fillColor=#D11200;strokeColor=#B20000;container=0;fontColor=#ffffff;" parent="1" vertex="1">
          <mxGeometry x="345" y="170" width="10" height="10" as="geometry" />
        </mxCell>
        <mxCell id="ScXmN28w3UK9h5KrgkOw-256" value="" style="rounded=1;whiteSpace=wrap;html=1;fillColor=#0000FF;strokeColor=#0000CC;container=0;fontColor=#ffffff;" parent="1" vertex="1">
          <mxGeometry x="345" y="150" width="10" height="10" as="geometry" />
        </mxCell>
        <mxCell id="ScXmN28w3UK9h5KrgkOw-257" value="" style="rounded=1;whiteSpace=wrap;html=1;fillColor=#0000FF;strokeColor=#0000CC;container=0;fontColor=#ffffff;" parent="1" vertex="1">
          <mxGeometry x="345" y="140" width="10" height="10" as="geometry" />
        </mxCell>
        <mxCell id="ScXmN28w3UK9h5KrgkOw-258" value="" style="rounded=1;whiteSpace=wrap;html=1;fillColor=#0000FF;strokeColor=#0000CC;container=0;fontColor=#ffffff;" parent="1" vertex="1">
          <mxGeometry x="345" y="130" width="10" height="10" as="geometry" />
        </mxCell>
        <mxCell id="ScXmN28w3UK9h5KrgkOw-259" value="" style="rounded=1;whiteSpace=wrap;html=1;fillColor=#fa6800;strokeColor=#C73500;container=0;fontColor=#000000;" parent="1" vertex="1">
          <mxGeometry x="345" y="60" width="10" height="10" as="geometry" />
        </mxCell>
        <mxCell id="ScXmN28w3UK9h5KrgkOw-260" value="" style="rounded=1;whiteSpace=wrap;html=1;fillColor=#fa6800;strokeColor=#C73500;container=0;fontColor=#000000;" parent="1" vertex="1">
          <mxGeometry x="345" y="70" width="10" height="10" as="geometry" />
        </mxCell>
        <mxCell id="ScXmN28w3UK9h5KrgkOw-261" value="" style="rounded=1;whiteSpace=wrap;html=1;fillColor=#60a917;strokeColor=#2D7600;container=0;fontColor=#ffffff;" parent="1" vertex="1">
          <mxGeometry x="365" y="120" width="10" height="10" as="geometry" />
        </mxCell>
        <mxCell id="ScXmN28w3UK9h5KrgkOw-262" value="" style="rounded=1;whiteSpace=wrap;html=1;fillColor=#60a917;strokeColor=#2D7600;container=0;fontColor=#ffffff;" parent="1" vertex="1">
          <mxGeometry x="365" y="110" width="10" height="10" as="geometry" />
        </mxCell>
        <mxCell id="ScXmN28w3UK9h5KrgkOw-263" value="" style="rounded=1;whiteSpace=wrap;html=1;fillColor=#60a917;strokeColor=#2D7600;container=0;fontColor=#ffffff;" parent="1" vertex="1">
          <mxGeometry x="365" y="100" width="10" height="10" as="geometry" />
        </mxCell>
        <mxCell id="ScXmN28w3UK9h5KrgkOw-264" value="" style="rounded=1;whiteSpace=wrap;html=1;fillColor=#60a917;strokeColor=#2D7600;container=0;fontColor=#ffffff;" parent="1" vertex="1">
          <mxGeometry x="365" y="90" width="10" height="10" as="geometry" />
        </mxCell>
        <mxCell id="ScXmN28w3UK9h5KrgkOw-265" value="" style="rounded=1;whiteSpace=wrap;html=1;fillColor=#60a917;strokeColor=#2D7600;container=0;fontColor=#ffffff;" parent="1" vertex="1">
          <mxGeometry x="365" y="80" width="10" height="10" as="geometry" />
        </mxCell>
        <mxCell id="ScXmN28w3UK9h5KrgkOw-266" value="" style="rounded=1;whiteSpace=wrap;html=1;fillColor=#D11200;strokeColor=#B20000;container=0;fontColor=#ffffff;" parent="1" vertex="1">
          <mxGeometry x="365" y="160" width="10" height="10" as="geometry" />
        </mxCell>
        <mxCell id="ScXmN28w3UK9h5KrgkOw-267" value="" style="rounded=1;whiteSpace=wrap;html=1;fillColor=#D11200;strokeColor=#B20000;container=0;fontColor=#ffffff;" parent="1" vertex="1">
          <mxGeometry x="365" y="170" width="10" height="10" as="geometry" />
        </mxCell>
        <mxCell id="ScXmN28w3UK9h5KrgkOw-268" value="" style="rounded=1;whiteSpace=wrap;html=1;fillColor=#0000FF;strokeColor=#0000CC;container=0;fontColor=#ffffff;" parent="1" vertex="1">
          <mxGeometry x="365" y="150" width="10" height="10" as="geometry" />
        </mxCell>
        <mxCell id="ScXmN28w3UK9h5KrgkOw-269" value="" style="rounded=1;whiteSpace=wrap;html=1;fillColor=#0000FF;strokeColor=#0000CC;container=0;fontColor=#ffffff;" parent="1" vertex="1">
          <mxGeometry x="365" y="140" width="10" height="10" as="geometry" />
        </mxCell>
        <mxCell id="ScXmN28w3UK9h5KrgkOw-270" value="" style="rounded=1;whiteSpace=wrap;html=1;fillColor=#0000FF;strokeColor=#0000CC;container=0;fontColor=#ffffff;" parent="1" vertex="1">
          <mxGeometry x="365" y="130" width="10" height="10" as="geometry" />
        </mxCell>
        <mxCell id="ScXmN28w3UK9h5KrgkOw-271" value="" style="rounded=1;whiteSpace=wrap;html=1;fillColor=#fa6800;strokeColor=#C73500;container=0;fontColor=#000000;" parent="1" vertex="1">
          <mxGeometry x="365" y="60" width="10" height="10" as="geometry" />
        </mxCell>
        <mxCell id="ScXmN28w3UK9h5KrgkOw-272" value="" style="rounded=1;whiteSpace=wrap;html=1;fillColor=#fa6800;strokeColor=#C73500;container=0;fontColor=#000000;" parent="1" vertex="1">
          <mxGeometry x="365" y="70" width="10" height="10" as="geometry" />
        </mxCell>
        <mxCell id="ScXmN28w3UK9h5KrgkOw-273" value="" style="rounded=1;whiteSpace=wrap;html=1;fillColor=#60a917;strokeColor=#2D7600;container=0;fontColor=#ffffff;" parent="1" vertex="1">
          <mxGeometry x="385" y="120" width="10" height="10" as="geometry" />
        </mxCell>
        <mxCell id="ScXmN28w3UK9h5KrgkOw-274" value="" style="rounded=1;whiteSpace=wrap;html=1;fillColor=#60a917;strokeColor=#2D7600;container=0;fontColor=#ffffff;" parent="1" vertex="1">
          <mxGeometry x="385" y="110" width="10" height="10" as="geometry" />
        </mxCell>
        <mxCell id="ScXmN28w3UK9h5KrgkOw-275" value="" style="rounded=1;whiteSpace=wrap;html=1;fillColor=#60a917;strokeColor=#2D7600;container=0;fontColor=#ffffff;" parent="1" vertex="1">
          <mxGeometry x="385" y="100" width="10" height="10" as="geometry" />
        </mxCell>
        <mxCell id="ScXmN28w3UK9h5KrgkOw-276" value="" style="rounded=1;whiteSpace=wrap;html=1;fillColor=#60a917;strokeColor=#2D7600;container=0;fontColor=#ffffff;" parent="1" vertex="1">
          <mxGeometry x="385" y="90" width="10" height="10" as="geometry" />
        </mxCell>
        <mxCell id="ScXmN28w3UK9h5KrgkOw-277" value="" style="rounded=1;whiteSpace=wrap;html=1;fillColor=#60a917;strokeColor=#2D7600;container=0;fontColor=#ffffff;" parent="1" vertex="1">
          <mxGeometry x="385" y="80" width="10" height="10" as="geometry" />
        </mxCell>
        <mxCell id="ScXmN28w3UK9h5KrgkOw-278" value="" style="rounded=1;whiteSpace=wrap;html=1;fillColor=#D11200;strokeColor=#B20000;container=0;fontColor=#ffffff;" parent="1" vertex="1">
          <mxGeometry x="385" y="160" width="10" height="10" as="geometry" />
        </mxCell>
        <mxCell id="ScXmN28w3UK9h5KrgkOw-279" value="" style="rounded=1;whiteSpace=wrap;html=1;fillColor=#D11200;strokeColor=#B20000;container=0;fontColor=#ffffff;" parent="1" vertex="1">
          <mxGeometry x="385" y="170" width="10" height="10" as="geometry" />
        </mxCell>
        <mxCell id="ScXmN28w3UK9h5KrgkOw-280" value="" style="rounded=1;whiteSpace=wrap;html=1;fillColor=#0000FF;strokeColor=#0000CC;container=0;fontColor=#ffffff;" parent="1" vertex="1">
          <mxGeometry x="385" y="150" width="10" height="10" as="geometry" />
        </mxCell>
        <mxCell id="ScXmN28w3UK9h5KrgkOw-281" value="" style="rounded=1;whiteSpace=wrap;html=1;fillColor=#0000FF;strokeColor=#0000CC;container=0;fontColor=#ffffff;" parent="1" vertex="1">
          <mxGeometry x="385" y="140" width="10" height="10" as="geometry" />
        </mxCell>
        <mxCell id="ScXmN28w3UK9h5KrgkOw-282" value="" style="rounded=1;whiteSpace=wrap;html=1;fillColor=#0000FF;strokeColor=#0000CC;container=0;fontColor=#ffffff;" parent="1" vertex="1">
          <mxGeometry x="385" y="130" width="10" height="10" as="geometry" />
        </mxCell>
        <mxCell id="ScXmN28w3UK9h5KrgkOw-283" value="" style="rounded=1;whiteSpace=wrap;html=1;fillColor=#fa6800;strokeColor=#C73500;container=0;fontColor=#000000;" parent="1" vertex="1">
          <mxGeometry x="385" y="60" width="10" height="10" as="geometry" />
        </mxCell>
        <mxCell id="ScXmN28w3UK9h5KrgkOw-284" value="" style="rounded=1;whiteSpace=wrap;html=1;fillColor=#fa6800;strokeColor=#C73500;container=0;fontColor=#000000;" parent="1" vertex="1">
          <mxGeometry x="385" y="70" width="10" height="10" as="geometry" />
        </mxCell>
        <mxCell id="ScXmN28w3UK9h5KrgkOw-289" value="" style="rounded=1;whiteSpace=wrap;html=1;fillColor=#60a917;strokeColor=#2D7600;container=0;fontColor=#ffffff;" parent="1" vertex="1">
          <mxGeometry x="405" y="120" width="10" height="10" as="geometry" />
        </mxCell>
        <mxCell id="ScXmN28w3UK9h5KrgkOw-290" value="" style="rounded=1;whiteSpace=wrap;html=1;fillColor=#60a917;strokeColor=#2D7600;container=0;fontColor=#ffffff;" parent="1" vertex="1">
          <mxGeometry x="405" y="110" width="10" height="10" as="geometry" />
        </mxCell>
        <mxCell id="ScXmN28w3UK9h5KrgkOw-291" value="" style="rounded=1;whiteSpace=wrap;html=1;fillColor=#60a917;strokeColor=#2D7600;container=0;fontColor=#ffffff;" parent="1" vertex="1">
          <mxGeometry x="405" y="100" width="10" height="10" as="geometry" />
        </mxCell>
        <mxCell id="ScXmN28w3UK9h5KrgkOw-292" value="" style="rounded=1;whiteSpace=wrap;html=1;fillColor=#60a917;strokeColor=#2D7600;container=0;fontColor=#ffffff;" parent="1" vertex="1">
          <mxGeometry x="405" y="90" width="10" height="10" as="geometry" />
        </mxCell>
        <mxCell id="ScXmN28w3UK9h5KrgkOw-293" value="" style="rounded=1;whiteSpace=wrap;html=1;fillColor=#60a917;strokeColor=#2D7600;container=0;fontColor=#ffffff;" parent="1" vertex="1">
          <mxGeometry x="405" y="80" width="10" height="10" as="geometry" />
        </mxCell>
        <mxCell id="ScXmN28w3UK9h5KrgkOw-294" value="" style="rounded=1;whiteSpace=wrap;html=1;fillColor=#D11200;strokeColor=#B20000;container=0;fontColor=#ffffff;" parent="1" vertex="1">
          <mxGeometry x="405" y="160" width="10" height="10" as="geometry" />
        </mxCell>
        <mxCell id="ScXmN28w3UK9h5KrgkOw-295" value="" style="rounded=1;whiteSpace=wrap;html=1;fillColor=#D11200;strokeColor=#B20000;container=0;fontColor=#ffffff;" parent="1" vertex="1">
          <mxGeometry x="405" y="170" width="10" height="10" as="geometry" />
        </mxCell>
        <mxCell id="ScXmN28w3UK9h5KrgkOw-296" value="" style="rounded=1;whiteSpace=wrap;html=1;fillColor=#0000FF;strokeColor=#0000CC;container=0;fontColor=#ffffff;" parent="1" vertex="1">
          <mxGeometry x="405" y="150" width="10" height="10" as="geometry" />
        </mxCell>
        <mxCell id="ScXmN28w3UK9h5KrgkOw-297" value="" style="rounded=1;whiteSpace=wrap;html=1;fillColor=#0000FF;strokeColor=#0000CC;container=0;fontColor=#ffffff;" parent="1" vertex="1">
          <mxGeometry x="405" y="140" width="10" height="10" as="geometry" />
        </mxCell>
        <mxCell id="ScXmN28w3UK9h5KrgkOw-298" value="" style="rounded=1;whiteSpace=wrap;html=1;fillColor=#0000FF;strokeColor=#0000CC;container=0;fontColor=#ffffff;" parent="1" vertex="1">
          <mxGeometry x="405" y="130" width="10" height="10" as="geometry" />
        </mxCell>
        <mxCell id="ScXmN28w3UK9h5KrgkOw-299" value="" style="rounded=1;whiteSpace=wrap;html=1;fillColor=#fa6800;strokeColor=#C73500;container=0;fontColor=#000000;" parent="1" vertex="1">
          <mxGeometry x="405" y="60" width="10" height="10" as="geometry" />
        </mxCell>
        <mxCell id="ScXmN28w3UK9h5KrgkOw-300" value="" style="rounded=1;whiteSpace=wrap;html=1;fillColor=#fa6800;strokeColor=#C73500;container=0;fontColor=#000000;" parent="1" vertex="1">
          <mxGeometry x="405" y="70" width="10" height="10" as="geometry" />
        </mxCell>
        <mxCell id="ScXmN28w3UK9h5KrgkOw-301" value="" style="rounded=1;whiteSpace=wrap;html=1;fillColor=#60a917;strokeColor=#2D7600;container=0;fontColor=#ffffff;" parent="1" vertex="1">
          <mxGeometry x="425" y="120" width="10" height="10" as="geometry" />
        </mxCell>
        <mxCell id="ScXmN28w3UK9h5KrgkOw-302" value="" style="rounded=1;whiteSpace=wrap;html=1;fillColor=#60a917;strokeColor=#2D7600;container=0;fontColor=#ffffff;" parent="1" vertex="1">
          <mxGeometry x="425" y="110" width="10" height="10" as="geometry" />
        </mxCell>
        <mxCell id="ScXmN28w3UK9h5KrgkOw-303" value="" style="rounded=1;whiteSpace=wrap;html=1;fillColor=#60a917;strokeColor=#2D7600;container=0;fontColor=#ffffff;" parent="1" vertex="1">
          <mxGeometry x="425" y="100" width="10" height="10" as="geometry" />
        </mxCell>
        <mxCell id="ScXmN28w3UK9h5KrgkOw-304" value="" style="rounded=1;whiteSpace=wrap;html=1;fillColor=#60a917;strokeColor=#2D7600;container=0;fontColor=#ffffff;" parent="1" vertex="1">
          <mxGeometry x="425" y="90" width="10" height="10" as="geometry" />
        </mxCell>
        <mxCell id="ScXmN28w3UK9h5KrgkOw-305" value="" style="rounded=1;whiteSpace=wrap;html=1;fillColor=#60a917;strokeColor=#2D7600;container=0;fontColor=#ffffff;" parent="1" vertex="1">
          <mxGeometry x="425" y="80" width="10" height="10" as="geometry" />
        </mxCell>
        <mxCell id="ScXmN28w3UK9h5KrgkOw-306" value="" style="rounded=1;whiteSpace=wrap;html=1;fillColor=#D11200;strokeColor=#B20000;container=0;fontColor=#ffffff;" parent="1" vertex="1">
          <mxGeometry x="425" y="160" width="10" height="10" as="geometry" />
        </mxCell>
        <mxCell id="ScXmN28w3UK9h5KrgkOw-307" value="" style="rounded=1;whiteSpace=wrap;html=1;fillColor=#D11200;strokeColor=#B20000;container=0;fontColor=#ffffff;" parent="1" vertex="1">
          <mxGeometry x="425" y="170" width="10" height="10" as="geometry" />
        </mxCell>
        <mxCell id="ScXmN28w3UK9h5KrgkOw-308" value="" style="rounded=1;whiteSpace=wrap;html=1;fillColor=#0000FF;strokeColor=#0000CC;container=0;fontColor=#ffffff;" parent="1" vertex="1">
          <mxGeometry x="425" y="150" width="10" height="10" as="geometry" />
        </mxCell>
        <mxCell id="ScXmN28w3UK9h5KrgkOw-309" value="" style="rounded=1;whiteSpace=wrap;html=1;fillColor=#0000FF;strokeColor=#0000CC;container=0;fontColor=#ffffff;" parent="1" vertex="1">
          <mxGeometry x="425" y="140" width="10" height="10" as="geometry" />
        </mxCell>
        <mxCell id="ScXmN28w3UK9h5KrgkOw-310" value="" style="rounded=1;whiteSpace=wrap;html=1;fillColor=#0000FF;strokeColor=#0000CC;container=0;fontColor=#ffffff;" parent="1" vertex="1">
          <mxGeometry x="425" y="130" width="10" height="10" as="geometry" />
        </mxCell>
        <mxCell id="ScXmN28w3UK9h5KrgkOw-311" value="" style="rounded=1;whiteSpace=wrap;html=1;fillColor=#fa6800;strokeColor=#C73500;container=0;fontColor=#000000;" parent="1" vertex="1">
          <mxGeometry x="425" y="60" width="10" height="10" as="geometry" />
        </mxCell>
        <mxCell id="ScXmN28w3UK9h5KrgkOw-312" value="" style="rounded=1;whiteSpace=wrap;html=1;fillColor=#fa6800;strokeColor=#C73500;container=0;fontColor=#000000;" parent="1" vertex="1">
          <mxGeometry x="425" y="70" width="10" height="10" as="geometry" />
        </mxCell>
        <mxCell id="ScXmN28w3UK9h5KrgkOw-316" value="" style="rounded=1;whiteSpace=wrap;html=1;fillColor=none;strokeColor=#FF0000;" parent="1" vertex="1">
          <mxGeometry x="340" y="35" width="20" height="150" as="geometry" />
        </mxCell>
        <mxCell id="ScXmN28w3UK9h5KrgkOw-318" value="" style="rounded=1;whiteSpace=wrap;html=1;fillColor=#1ba1e2;strokeColor=#006EAF;container=0;fontColor=#ffffff;" parent="1" vertex="1">
          <mxGeometry x="125" y="60" width="10" height="10" as="geometry" />
        </mxCell>
        <mxCell id="ScXmN28w3UK9h5KrgkOw-319" value="" style="rounded=1;whiteSpace=wrap;html=1;fillColor=#1ba1e2;strokeColor=#006EAF;container=0;fontColor=#ffffff;" parent="1" vertex="1">
          <mxGeometry x="145" y="120" width="10" height="10" as="geometry" />
        </mxCell>
        <mxCell id="ScXmN28w3UK9h5KrgkOw-320" value="" style="rounded=1;whiteSpace=wrap;html=1;fillColor=#1ba1e2;strokeColor=#006EAF;container=0;fontColor=#ffffff;" parent="1" vertex="1">
          <mxGeometry x="145" y="110" width="10" height="10" as="geometry" />
        </mxCell>
        <mxCell id="ScXmN28w3UK9h5KrgkOw-321" value="" style="rounded=1;whiteSpace=wrap;html=1;fillColor=#1ba1e2;strokeColor=#006EAF;container=0;fontColor=#ffffff;" parent="1" vertex="1">
          <mxGeometry x="145" y="100" width="10" height="10" as="geometry" />
        </mxCell>
        <mxCell id="ScXmN28w3UK9h5KrgkOw-322" value="" style="rounded=1;whiteSpace=wrap;html=1;fillColor=#1ba1e2;strokeColor=#006EAF;container=0;fontColor=#ffffff;" parent="1" vertex="1">
          <mxGeometry x="145" y="90" width="10" height="10" as="geometry" />
        </mxCell>
        <mxCell id="ScXmN28w3UK9h5KrgkOw-323" value="" style="rounded=1;whiteSpace=wrap;html=1;fillColor=#1ba1e2;strokeColor=#006EAF;container=0;fontColor=#ffffff;" parent="1" vertex="1">
          <mxGeometry x="145" y="80" width="10" height="10" as="geometry" />
        </mxCell>
        <mxCell id="ScXmN28w3UK9h5KrgkOw-324" value="" style="rounded=1;whiteSpace=wrap;html=1;fillColor=#d80073;strokeColor=#A50040;container=0;fontColor=#ffffff;" parent="1" vertex="1">
          <mxGeometry x="145" y="160" width="10" height="10" as="geometry" />
        </mxCell>
        <mxCell id="ScXmN28w3UK9h5KrgkOw-325" value="" style="rounded=1;whiteSpace=wrap;html=1;fillColor=#d80073;strokeColor=#A50040;container=0;fontColor=#ffffff;" parent="1" vertex="1">
          <mxGeometry x="145" y="170" width="10" height="10" as="geometry" />
        </mxCell>
        <mxCell id="ScXmN28w3UK9h5KrgkOw-326" value="" style="rounded=1;whiteSpace=wrap;html=1;fillColor=#1ba1e2;strokeColor=#006EAF;container=0;fontColor=#ffffff;" parent="1" vertex="1">
          <mxGeometry x="145" y="150" width="10" height="10" as="geometry" />
        </mxCell>
        <mxCell id="ScXmN28w3UK9h5KrgkOw-327" value="" style="rounded=1;whiteSpace=wrap;html=1;fillColor=#1ba1e2;strokeColor=#006EAF;container=0;fontColor=#ffffff;" parent="1" vertex="1">
          <mxGeometry x="145" y="140" width="10" height="10" as="geometry" />
        </mxCell>
        <mxCell id="ScXmN28w3UK9h5KrgkOw-328" value="" style="rounded=1;whiteSpace=wrap;html=1;fillColor=#1ba1e2;strokeColor=#006EAF;container=0;fontColor=#ffffff;" parent="1" vertex="1">
          <mxGeometry x="145" y="130" width="10" height="10" as="geometry" />
        </mxCell>
        <mxCell id="ScXmN28w3UK9h5KrgkOw-329" value="" style="rounded=1;whiteSpace=wrap;html=1;fillColor=#1ba1e2;strokeColor=#006EAF;container=0;fontColor=#ffffff;" parent="1" vertex="1">
          <mxGeometry x="145" y="70" width="10" height="10" as="geometry" />
        </mxCell>
        <mxCell id="ScXmN28w3UK9h5KrgkOw-330" value="" style="rounded=1;whiteSpace=wrap;html=1;fillColor=#1ba1e2;strokeColor=#006EAF;container=0;fontColor=#ffffff;" parent="1" vertex="1">
          <mxGeometry x="145" y="60" width="10" height="10" as="geometry" />
        </mxCell>
        <mxCell id="ScXmN28w3UK9h5KrgkOw-331" value="" style="rounded=1;whiteSpace=wrap;html=1;fillColor=#1ba1e2;strokeColor=#006EAF;container=0;fontColor=#ffffff;" parent="1" vertex="1">
          <mxGeometry x="165" y="120" width="10" height="10" as="geometry" />
        </mxCell>
        <mxCell id="ScXmN28w3UK9h5KrgkOw-332" value="" style="rounded=1;whiteSpace=wrap;html=1;fillColor=#1ba1e2;strokeColor=#006EAF;container=0;fontColor=#ffffff;" parent="1" vertex="1">
          <mxGeometry x="165" y="110" width="10" height="10" as="geometry" />
        </mxCell>
        <mxCell id="ScXmN28w3UK9h5KrgkOw-333" value="" style="rounded=1;whiteSpace=wrap;html=1;fillColor=#1ba1e2;strokeColor=#006EAF;container=0;fontColor=#ffffff;" parent="1" vertex="1">
          <mxGeometry x="165" y="100" width="10" height="10" as="geometry" />
        </mxCell>
        <mxCell id="ScXmN28w3UK9h5KrgkOw-334" value="" style="rounded=1;whiteSpace=wrap;html=1;fillColor=#1ba1e2;strokeColor=#006EAF;container=0;fontColor=#ffffff;" parent="1" vertex="1">
          <mxGeometry x="165" y="90" width="10" height="10" as="geometry" />
        </mxCell>
        <mxCell id="ScXmN28w3UK9h5KrgkOw-335" value="" style="rounded=1;whiteSpace=wrap;html=1;fillColor=#1ba1e2;strokeColor=#006EAF;container=0;fontColor=#ffffff;" parent="1" vertex="1">
          <mxGeometry x="165" y="80" width="10" height="10" as="geometry" />
        </mxCell>
        <mxCell id="ScXmN28w3UK9h5KrgkOw-336" value="" style="rounded=1;whiteSpace=wrap;html=1;fillColor=#d80073;strokeColor=#A50040;container=0;fontColor=#ffffff;" parent="1" vertex="1">
          <mxGeometry x="165" y="160" width="10" height="10" as="geometry" />
        </mxCell>
        <mxCell id="ScXmN28w3UK9h5KrgkOw-337" value="" style="rounded=1;whiteSpace=wrap;html=1;fillColor=#d80073;strokeColor=#A50040;container=0;fontColor=#ffffff;" parent="1" vertex="1">
          <mxGeometry x="165" y="170" width="10" height="10" as="geometry" />
        </mxCell>
        <mxCell id="ScXmN28w3UK9h5KrgkOw-338" value="" style="rounded=1;whiteSpace=wrap;html=1;fillColor=#1ba1e2;strokeColor=#006EAF;container=0;fontColor=#ffffff;" parent="1" vertex="1">
          <mxGeometry x="165" y="150" width="10" height="10" as="geometry" />
        </mxCell>
        <mxCell id="ScXmN28w3UK9h5KrgkOw-339" value="" style="rounded=1;whiteSpace=wrap;html=1;fillColor=#1ba1e2;strokeColor=#006EAF;container=0;fontColor=#ffffff;" parent="1" vertex="1">
          <mxGeometry x="165" y="140" width="10" height="10" as="geometry" />
        </mxCell>
        <mxCell id="ScXmN28w3UK9h5KrgkOw-340" value="" style="rounded=1;whiteSpace=wrap;html=1;fillColor=#1ba1e2;strokeColor=#006EAF;container=0;fontColor=#ffffff;" parent="1" vertex="1">
          <mxGeometry x="165" y="130" width="10" height="10" as="geometry" />
        </mxCell>
        <mxCell id="ScXmN28w3UK9h5KrgkOw-341" value="" style="rounded=1;whiteSpace=wrap;html=1;fillColor=#1ba1e2;strokeColor=#006EAF;container=0;fontColor=#ffffff;" parent="1" vertex="1">
          <mxGeometry x="165" y="70" width="10" height="10" as="geometry" />
        </mxCell>
        <mxCell id="ScXmN28w3UK9h5KrgkOw-342" value="" style="rounded=1;whiteSpace=wrap;html=1;fillColor=#1ba1e2;strokeColor=#006EAF;container=0;fontColor=#ffffff;" parent="1" vertex="1">
          <mxGeometry x="165" y="60" width="10" height="10" as="geometry" />
        </mxCell>
        <mxCell id="ScXmN28w3UK9h5KrgkOw-343" value="" style="rounded=1;whiteSpace=wrap;html=1;fillColor=#1ba1e2;strokeColor=#006EAF;container=0;fontColor=#ffffff;" parent="1" vertex="1">
          <mxGeometry x="185" y="120" width="10" height="10" as="geometry" />
        </mxCell>
        <mxCell id="ScXmN28w3UK9h5KrgkOw-344" value="" style="rounded=1;whiteSpace=wrap;html=1;fillColor=#1ba1e2;strokeColor=#006EAF;container=0;fontColor=#ffffff;" parent="1" vertex="1">
          <mxGeometry x="185" y="110" width="10" height="10" as="geometry" />
        </mxCell>
        <mxCell id="ScXmN28w3UK9h5KrgkOw-345" value="" style="rounded=1;whiteSpace=wrap;html=1;fillColor=#1ba1e2;strokeColor=#006EAF;container=0;fontColor=#ffffff;" parent="1" vertex="1">
          <mxGeometry x="185" y="100" width="10" height="10" as="geometry" />
        </mxCell>
        <mxCell id="ScXmN28w3UK9h5KrgkOw-346" value="" style="rounded=1;whiteSpace=wrap;html=1;fillColor=#1ba1e2;strokeColor=#006EAF;container=0;fontColor=#ffffff;" parent="1" vertex="1">
          <mxGeometry x="185" y="90" width="10" height="10" as="geometry" />
        </mxCell>
        <mxCell id="ScXmN28w3UK9h5KrgkOw-347" value="" style="rounded=1;whiteSpace=wrap;html=1;fillColor=#1ba1e2;strokeColor=#006EAF;container=0;fontColor=#ffffff;" parent="1" vertex="1">
          <mxGeometry x="185" y="80" width="10" height="10" as="geometry" />
        </mxCell>
        <mxCell id="ScXmN28w3UK9h5KrgkOw-348" value="" style="rounded=1;whiteSpace=wrap;html=1;fillColor=#d80073;strokeColor=#A50040;container=0;fontColor=#ffffff;" parent="1" vertex="1">
          <mxGeometry x="185" y="160" width="10" height="10" as="geometry" />
        </mxCell>
        <mxCell id="ScXmN28w3UK9h5KrgkOw-349" value="" style="rounded=1;whiteSpace=wrap;html=1;fillColor=#d80073;strokeColor=#A50040;container=0;fontColor=#ffffff;" parent="1" vertex="1">
          <mxGeometry x="185" y="170" width="10" height="10" as="geometry" />
        </mxCell>
        <mxCell id="ScXmN28w3UK9h5KrgkOw-350" value="" style="rounded=1;whiteSpace=wrap;html=1;fillColor=#1ba1e2;strokeColor=#006EAF;container=0;fontColor=#ffffff;" parent="1" vertex="1">
          <mxGeometry x="185" y="150" width="10" height="10" as="geometry" />
        </mxCell>
        <mxCell id="ScXmN28w3UK9h5KrgkOw-351" value="" style="rounded=1;whiteSpace=wrap;html=1;fillColor=#1ba1e2;strokeColor=#006EAF;container=0;fontColor=#ffffff;" parent="1" vertex="1">
          <mxGeometry x="185" y="140" width="10" height="10" as="geometry" />
        </mxCell>
        <mxCell id="ScXmN28w3UK9h5KrgkOw-352" value="" style="rounded=1;whiteSpace=wrap;html=1;fillColor=#1ba1e2;strokeColor=#006EAF;container=0;fontColor=#ffffff;" parent="1" vertex="1">
          <mxGeometry x="185" y="130" width="10" height="10" as="geometry" />
        </mxCell>
        <mxCell id="ScXmN28w3UK9h5KrgkOw-353" value="" style="rounded=1;whiteSpace=wrap;html=1;fillColor=#1ba1e2;strokeColor=#006EAF;container=0;fontColor=#ffffff;" parent="1" vertex="1">
          <mxGeometry x="185" y="70" width="10" height="10" as="geometry" />
        </mxCell>
        <mxCell id="ScXmN28w3UK9h5KrgkOw-354" value="" style="rounded=1;whiteSpace=wrap;html=1;fillColor=#1ba1e2;strokeColor=#006EAF;container=0;fontColor=#ffffff;" parent="1" vertex="1">
          <mxGeometry x="185" y="60" width="10" height="10" as="geometry" />
        </mxCell>
        <mxCell id="ScXmN28w3UK9h5KrgkOw-355" value="" style="rounded=1;whiteSpace=wrap;html=1;fillColor=#1ba1e2;strokeColor=#006EAF;container=0;fontColor=#ffffff;" parent="1" vertex="1">
          <mxGeometry x="205" y="120" width="10" height="10" as="geometry" />
        </mxCell>
        <mxCell id="ScXmN28w3UK9h5KrgkOw-356" value="" style="rounded=1;whiteSpace=wrap;html=1;fillColor=#1ba1e2;strokeColor=#006EAF;container=0;fontColor=#ffffff;" parent="1" vertex="1">
          <mxGeometry x="205" y="110" width="10" height="10" as="geometry" />
        </mxCell>
        <mxCell id="ScXmN28w3UK9h5KrgkOw-357" value="" style="rounded=1;whiteSpace=wrap;html=1;fillColor=#1ba1e2;strokeColor=#006EAF;container=0;fontColor=#ffffff;" parent="1" vertex="1">
          <mxGeometry x="205" y="100" width="10" height="10" as="geometry" />
        </mxCell>
        <mxCell id="ScXmN28w3UK9h5KrgkOw-358" value="" style="rounded=1;whiteSpace=wrap;html=1;fillColor=#1ba1e2;strokeColor=#006EAF;container=0;fontColor=#ffffff;" parent="1" vertex="1">
          <mxGeometry x="205" y="90" width="10" height="10" as="geometry" />
        </mxCell>
        <mxCell id="ScXmN28w3UK9h5KrgkOw-359" value="" style="rounded=1;whiteSpace=wrap;html=1;fillColor=#1ba1e2;strokeColor=#006EAF;container=0;fontColor=#ffffff;" parent="1" vertex="1">
          <mxGeometry x="205" y="80" width="10" height="10" as="geometry" />
        </mxCell>
        <mxCell id="ScXmN28w3UK9h5KrgkOw-360" value="" style="rounded=1;whiteSpace=wrap;html=1;fillColor=#d80073;strokeColor=#A50040;container=0;fontColor=#ffffff;" parent="1" vertex="1">
          <mxGeometry x="205" y="160" width="10" height="10" as="geometry" />
        </mxCell>
        <mxCell id="ScXmN28w3UK9h5KrgkOw-361" value="" style="rounded=1;whiteSpace=wrap;html=1;fillColor=#d80073;strokeColor=#A50040;container=0;fontColor=#ffffff;" parent="1" vertex="1">
          <mxGeometry x="205" y="170" width="10" height="10" as="geometry" />
        </mxCell>
        <mxCell id="ScXmN28w3UK9h5KrgkOw-362" value="" style="rounded=1;whiteSpace=wrap;html=1;fillColor=#1ba1e2;strokeColor=#006EAF;container=0;fontColor=#ffffff;" parent="1" vertex="1">
          <mxGeometry x="205" y="150" width="10" height="10" as="geometry" />
        </mxCell>
        <mxCell id="ScXmN28w3UK9h5KrgkOw-363" value="" style="rounded=1;whiteSpace=wrap;html=1;fillColor=#1ba1e2;strokeColor=#006EAF;container=0;fontColor=#ffffff;" parent="1" vertex="1">
          <mxGeometry x="205" y="140" width="10" height="10" as="geometry" />
        </mxCell>
        <mxCell id="ScXmN28w3UK9h5KrgkOw-364" value="" style="rounded=1;whiteSpace=wrap;html=1;fillColor=#1ba1e2;strokeColor=#006EAF;container=0;fontColor=#ffffff;" parent="1" vertex="1">
          <mxGeometry x="205" y="130" width="10" height="10" as="geometry" />
        </mxCell>
        <mxCell id="ScXmN28w3UK9h5KrgkOw-365" value="" style="rounded=1;whiteSpace=wrap;html=1;fillColor=#1ba1e2;strokeColor=#006EAF;container=0;fontColor=#ffffff;" parent="1" vertex="1">
          <mxGeometry x="205" y="70" width="10" height="10" as="geometry" />
        </mxCell>
        <mxCell id="ScXmN28w3UK9h5KrgkOw-366" value="" style="rounded=1;whiteSpace=wrap;html=1;fillColor=#1ba1e2;strokeColor=#006EAF;container=0;fontColor=#ffffff;" parent="1" vertex="1">
          <mxGeometry x="205" y="60" width="10" height="10" as="geometry" />
        </mxCell>
        <mxCell id="ScXmN28w3UK9h5KrgkOw-367" value="" style="rounded=1;whiteSpace=wrap;html=1;fillColor=#1ba1e2;strokeColor=#006EAF;container=0;fontColor=#ffffff;" parent="1" vertex="1">
          <mxGeometry x="225" y="120" width="10" height="10" as="geometry" />
        </mxCell>
        <mxCell id="ScXmN28w3UK9h5KrgkOw-368" value="" style="rounded=1;whiteSpace=wrap;html=1;fillColor=#1ba1e2;strokeColor=#006EAF;container=0;fontColor=#ffffff;" parent="1" vertex="1">
          <mxGeometry x="225" y="110" width="10" height="10" as="geometry" />
        </mxCell>
        <mxCell id="ScXmN28w3UK9h5KrgkOw-369" value="" style="rounded=1;whiteSpace=wrap;html=1;fillColor=#1ba1e2;strokeColor=#006EAF;container=0;fontColor=#ffffff;" parent="1" vertex="1">
          <mxGeometry x="225" y="100" width="10" height="10" as="geometry" />
        </mxCell>
        <mxCell id="ScXmN28w3UK9h5KrgkOw-370" value="" style="rounded=1;whiteSpace=wrap;html=1;fillColor=#1ba1e2;strokeColor=#006EAF;container=0;fontColor=#ffffff;" parent="1" vertex="1">
          <mxGeometry x="225" y="90" width="10" height="10" as="geometry" />
        </mxCell>
        <mxCell id="ScXmN28w3UK9h5KrgkOw-371" value="" style="rounded=1;whiteSpace=wrap;html=1;fillColor=#1ba1e2;strokeColor=#006EAF;container=0;fontColor=#ffffff;" parent="1" vertex="1">
          <mxGeometry x="225" y="80" width="10" height="10" as="geometry" />
        </mxCell>
        <mxCell id="ScXmN28w3UK9h5KrgkOw-372" value="" style="rounded=1;whiteSpace=wrap;html=1;fillColor=#d80073;strokeColor=#A50040;container=0;fontColor=#ffffff;" parent="1" vertex="1">
          <mxGeometry x="225" y="160" width="10" height="10" as="geometry" />
        </mxCell>
        <mxCell id="ScXmN28w3UK9h5KrgkOw-373" value="" style="rounded=1;whiteSpace=wrap;html=1;fillColor=#d80073;strokeColor=#A50040;container=0;fontColor=#ffffff;" parent="1" vertex="1">
          <mxGeometry x="225" y="170" width="10" height="10" as="geometry" />
        </mxCell>
        <mxCell id="ScXmN28w3UK9h5KrgkOw-374" value="" style="rounded=1;whiteSpace=wrap;html=1;fillColor=#1ba1e2;strokeColor=#006EAF;container=0;fontColor=#ffffff;" parent="1" vertex="1">
          <mxGeometry x="225" y="150" width="10" height="10" as="geometry" />
        </mxCell>
        <mxCell id="ScXmN28w3UK9h5KrgkOw-375" value="" style="rounded=1;whiteSpace=wrap;html=1;fillColor=#1ba1e2;strokeColor=#006EAF;container=0;fontColor=#ffffff;" parent="1" vertex="1">
          <mxGeometry x="225" y="140" width="10" height="10" as="geometry" />
        </mxCell>
        <mxCell id="ScXmN28w3UK9h5KrgkOw-376" value="" style="rounded=1;whiteSpace=wrap;html=1;fillColor=#1ba1e2;strokeColor=#006EAF;container=0;fontColor=#ffffff;" parent="1" vertex="1">
          <mxGeometry x="225" y="130" width="10" height="10" as="geometry" />
        </mxCell>
        <mxCell id="ScXmN28w3UK9h5KrgkOw-377" value="" style="rounded=1;whiteSpace=wrap;html=1;fillColor=#1ba1e2;strokeColor=#006EAF;container=0;fontColor=#ffffff;" parent="1" vertex="1">
          <mxGeometry x="225" y="70" width="10" height="10" as="geometry" />
        </mxCell>
        <mxCell id="ScXmN28w3UK9h5KrgkOw-378" value="" style="rounded=1;whiteSpace=wrap;html=1;fillColor=#1ba1e2;strokeColor=#006EAF;container=0;fontColor=#ffffff;" parent="1" vertex="1">
          <mxGeometry x="225" y="60" width="10" height="10" as="geometry" />
        </mxCell>
        <mxCell id="ScXmN28w3UK9h5KrgkOw-379" value="" style="rounded=1;whiteSpace=wrap;html=1;fillColor=none;strokeColor=#FF0000;" parent="1" vertex="1">
          <mxGeometry x="140" y="35" width="20" height="150" as="geometry" />
        </mxCell>
        <mxCell id="NknOo35smSlC8cDLZzpO-1" value="" style="rounded=1;whiteSpace=wrap;html=1;fillColor=#bac8d3;strokeColor=#23445d;container=0;" vertex="1" parent="1">
          <mxGeometry x="425" y="40" width="10" height="10" as="geometry" />
        </mxCell>
        <mxCell id="NknOo35smSlC8cDLZzpO-2" value="" style="rounded=1;whiteSpace=wrap;html=1;fillColor=#bac8d3;strokeColor=#23445d;container=0;" vertex="1" parent="1">
          <mxGeometry x="425" y="50" width="10" height="10" as="geometry" />
        </mxCell>
        <mxCell id="NknOo35smSlC8cDLZzpO-4" value="" style="rounded=1;whiteSpace=wrap;html=1;fillColor=#bac8d3;strokeColor=#23445d;container=0;" vertex="1" parent="1">
          <mxGeometry x="405" y="40" width="10" height="10" as="geometry" />
        </mxCell>
        <mxCell id="NknOo35smSlC8cDLZzpO-5" value="" style="rounded=1;whiteSpace=wrap;html=1;fillColor=#bac8d3;strokeColor=#23445d;container=0;" vertex="1" parent="1">
          <mxGeometry x="405" y="50" width="10" height="10" as="geometry" />
        </mxCell>
        <mxCell id="NknOo35smSlC8cDLZzpO-6" value="" style="rounded=1;whiteSpace=wrap;html=1;fillColor=#bac8d3;strokeColor=#23445d;container=0;" vertex="1" parent="1">
          <mxGeometry x="385" y="40" width="10" height="10" as="geometry" />
        </mxCell>
        <mxCell id="NknOo35smSlC8cDLZzpO-7" value="" style="rounded=1;whiteSpace=wrap;html=1;fillColor=#bac8d3;strokeColor=#23445d;container=0;" vertex="1" parent="1">
          <mxGeometry x="385" y="50" width="10" height="10" as="geometry" />
        </mxCell>
        <mxCell id="NknOo35smSlC8cDLZzpO-8" value="" style="rounded=1;whiteSpace=wrap;html=1;fillColor=#bac8d3;strokeColor=#23445d;container=0;" vertex="1" parent="1">
          <mxGeometry x="325" y="40" width="10" height="10" as="geometry" />
        </mxCell>
        <mxCell id="NknOo35smSlC8cDLZzpO-9" value="" style="rounded=1;whiteSpace=wrap;html=1;fillColor=#bac8d3;strokeColor=#23445d;container=0;" vertex="1" parent="1">
          <mxGeometry x="325" y="50" width="10" height="10" as="geometry" />
        </mxCell>
        <mxCell id="NknOo35smSlC8cDLZzpO-10" value="" style="rounded=1;whiteSpace=wrap;html=1;fillColor=#bac8d3;strokeColor=#23445d;container=0;" vertex="1" parent="1">
          <mxGeometry x="365" y="40" width="10" height="10" as="geometry" />
        </mxCell>
        <mxCell id="NknOo35smSlC8cDLZzpO-11" value="" style="rounded=1;whiteSpace=wrap;html=1;fillColor=#bac8d3;strokeColor=#23445d;container=0;" vertex="1" parent="1">
          <mxGeometry x="365" y="50" width="10" height="10" as="geometry" />
        </mxCell>
        <mxCell id="NknOo35smSlC8cDLZzpO-12" value="" style="rounded=1;whiteSpace=wrap;html=1;fillColor=#bac8d3;strokeColor=#23445d;container=0;" vertex="1" parent="1">
          <mxGeometry x="345" y="40" width="10" height="10" as="geometry" />
        </mxCell>
        <mxCell id="NknOo35smSlC8cDLZzpO-13" value="" style="rounded=1;whiteSpace=wrap;html=1;fillColor=#bac8d3;strokeColor=#23445d;container=0;" vertex="1" parent="1">
          <mxGeometry x="345" y="50" width="10" height="10" as="geometry" />
        </mxCell>
        <mxCell id="ScXmN28w3UK9h5KrgkOw-286" value="" style="endArrow=classic;html=1;rounded=0;curved=1;exitX=0.5;exitY=0;exitDx=0;exitDy=0;fillColor=#f8cecc;strokeColor=#000000;startArrow=none;startFill=0;" parent="1" edge="1" source="ScXmN28w3UK9h5KrgkOw-316">
          <mxGeometry width="50" height="50" relative="1" as="geometry">
            <mxPoint x="352.66999999999985" y="32.22999999999999" as="sourcePoint" />
            <mxPoint x="370" y="32" as="targetPoint" />
            <Array as="points">
              <mxPoint x="362.5" y="13" />
            </Array>
          </mxGeometry>
        </mxCell>
        <mxCell id="ScXmN28w3UK9h5KrgkOw-287" value="" style="endArrow=classic;html=1;rounded=0;curved=1;entryX=0.5;entryY=0;entryDx=0;entryDy=0;fillColor=#f8cecc;strokeColor=#000000;exitX=0.25;exitY=0;exitDx=0;exitDy=0;startArrow=none;startFill=0;" parent="1" target="NknOo35smSlC8cDLZzpO-6" edge="1">
          <mxGeometry width="50" height="50" relative="1" as="geometry">
            <mxPoint x="350" y="35" as="sourcePoint" />
            <mxPoint x="395" y="33" as="targetPoint" />
            <Array as="points">
              <mxPoint x="357.5" y="13" />
              <mxPoint x="382.5" y="13" />
            </Array>
          </mxGeometry>
        </mxCell>
        <mxCell id="ScXmN28w3UK9h5KrgkOw-315" value="" style="endArrow=classic;html=1;rounded=0;curved=1;exitX=0.5;exitY=0;exitDx=0;exitDy=0;entryX=0.5;entryY=0;entryDx=0;entryDy=0;fillColor=#f8cecc;strokeColor=#000000;startArrow=none;startFill=0;" parent="1" target="NknOo35smSlC8cDLZzpO-8" edge="1" source="ScXmN28w3UK9h5KrgkOw-316">
          <mxGeometry width="50" height="50" relative="1" as="geometry">
            <mxPoint x="347.99999999999983" y="32.22999999999999" as="sourcePoint" />
            <mxPoint x="367.83" y="33" as="targetPoint" />
            <Array as="points">
              <mxPoint x="340" y="13" />
            </Array>
          </mxGeometry>
        </mxCell>
        <mxCell id="NknOo35smSlC8cDLZzpO-14" value="$$\mathbf{v}$$" style="text;html=1;align=center;verticalAlign=middle;whiteSpace=wrap;rounded=0;" vertex="1" parent="1">
          <mxGeometry x="300" y="40" width="20" height="20" as="geometry" />
        </mxCell>
        <mxCell id="NknOo35smSlC8cDLZzpO-15" value="" style="rounded=1;whiteSpace=wrap;html=1;fillColor=#1ba1e2;strokeColor=#006EAF;container=0;fontColor=#ffffff;" vertex="1" parent="1">
          <mxGeometry x="125" y="50" width="10" height="10" as="geometry" />
        </mxCell>
        <mxCell id="NknOo35smSlC8cDLZzpO-16" value="" style="rounded=1;whiteSpace=wrap;html=1;fillColor=#1ba1e2;strokeColor=#006EAF;container=0;fontColor=#ffffff;" vertex="1" parent="1">
          <mxGeometry x="125" y="40" width="10" height="10" as="geometry" />
        </mxCell>
        <mxCell id="NknOo35smSlC8cDLZzpO-17" value="" style="rounded=1;whiteSpace=wrap;html=1;fillColor=#1ba1e2;strokeColor=#006EAF;container=0;fontColor=#ffffff;" vertex="1" parent="1">
          <mxGeometry x="145" y="50" width="10" height="10" as="geometry" />
        </mxCell>
        <mxCell id="NknOo35smSlC8cDLZzpO-18" value="" style="rounded=1;whiteSpace=wrap;html=1;fillColor=#1ba1e2;strokeColor=#006EAF;container=0;fontColor=#ffffff;" vertex="1" parent="1">
          <mxGeometry x="145" y="40" width="10" height="10" as="geometry" />
        </mxCell>
        <mxCell id="NknOo35smSlC8cDLZzpO-19" value="" style="rounded=1;whiteSpace=wrap;html=1;fillColor=#1ba1e2;strokeColor=#006EAF;container=0;fontColor=#ffffff;" vertex="1" parent="1">
          <mxGeometry x="165" y="50" width="10" height="10" as="geometry" />
        </mxCell>
        <mxCell id="NknOo35smSlC8cDLZzpO-20" value="" style="rounded=1;whiteSpace=wrap;html=1;fillColor=#1ba1e2;strokeColor=#006EAF;container=0;fontColor=#ffffff;" vertex="1" parent="1">
          <mxGeometry x="165" y="40" width="10" height="10" as="geometry" />
        </mxCell>
        <mxCell id="NknOo35smSlC8cDLZzpO-21" value="" style="rounded=1;whiteSpace=wrap;html=1;fillColor=#1ba1e2;strokeColor=#006EAF;container=0;fontColor=#ffffff;" vertex="1" parent="1">
          <mxGeometry x="185" y="50" width="10" height="10" as="geometry" />
        </mxCell>
        <mxCell id="NknOo35smSlC8cDLZzpO-22" value="" style="rounded=1;whiteSpace=wrap;html=1;fillColor=#1ba1e2;strokeColor=#006EAF;container=0;fontColor=#ffffff;" vertex="1" parent="1">
          <mxGeometry x="185" y="40" width="10" height="10" as="geometry" />
        </mxCell>
        <mxCell id="NknOo35smSlC8cDLZzpO-23" value="" style="rounded=1;whiteSpace=wrap;html=1;fillColor=#1ba1e2;strokeColor=#006EAF;container=0;fontColor=#ffffff;" vertex="1" parent="1">
          <mxGeometry x="205" y="50" width="10" height="10" as="geometry" />
        </mxCell>
        <mxCell id="NknOo35smSlC8cDLZzpO-24" value="" style="rounded=1;whiteSpace=wrap;html=1;fillColor=#1ba1e2;strokeColor=#006EAF;container=0;fontColor=#ffffff;" vertex="1" parent="1">
          <mxGeometry x="205" y="40" width="10" height="10" as="geometry" />
        </mxCell>
        <mxCell id="NknOo35smSlC8cDLZzpO-25" value="" style="rounded=1;whiteSpace=wrap;html=1;fillColor=#1ba1e2;strokeColor=#006EAF;container=0;fontColor=#ffffff;" vertex="1" parent="1">
          <mxGeometry x="225" y="50" width="10" height="10" as="geometry" />
        </mxCell>
        <mxCell id="NknOo35smSlC8cDLZzpO-26" value="" style="rounded=1;whiteSpace=wrap;html=1;fillColor=#1ba1e2;strokeColor=#006EAF;container=0;fontColor=#ffffff;" vertex="1" parent="1">
          <mxGeometry x="225" y="40" width="10" height="10" as="geometry" />
        </mxCell>
        <mxCell id="ScXmN28w3UK9h5KrgkOw-381" value="" style="endArrow=classic;html=1;rounded=0;curved=1;exitX=0.517;exitY=-0.077;exitDx=0;exitDy=0;exitPerimeter=0;entryX=0.5;entryY=0;entryDx=0;entryDy=0;fillColor=#f8cecc;strokeColor=#000000;startArrow=none;startFill=0;" parent="1" edge="1">
          <mxGeometry width="50" height="50" relative="1" as="geometry">
            <mxPoint x="146.99999999999983" y="39.22999999999999" as="sourcePoint" />
            <mxPoint x="129" y="40" as="targetPoint" />
            <Array as="points">
              <mxPoint x="139" y="20" />
            </Array>
          </mxGeometry>
        </mxCell>
        <mxCell id="ScXmN28w3UK9h5KrgkOw-382" value="" style="endArrow=classic;html=1;rounded=0;curved=1;exitX=0.517;exitY=-0.077;exitDx=0;exitDy=0;exitPerimeter=0;fillColor=#f8cecc;strokeColor=#000000;startArrow=none;startFill=0;" parent="1" edge="1">
          <mxGeometry width="50" height="50" relative="1" as="geometry">
            <mxPoint x="152.66999999999985" y="39.999999999999986" as="sourcePoint" />
            <mxPoint x="170" y="39.769999999999996" as="targetPoint" />
            <Array as="points">
              <mxPoint x="162.5" y="20.769999999999996" />
            </Array>
          </mxGeometry>
        </mxCell>
        <mxCell id="ScXmN28w3UK9h5KrgkOw-383" value="" style="endArrow=classic;html=1;rounded=0;curved=1;entryX=0.5;entryY=0;entryDx=0;entryDy=0;fillColor=#f8cecc;strokeColor=#000000;exitX=0.25;exitY=0;exitDx=0;exitDy=0;startArrow=none;startFill=0;" parent="1" edge="1">
          <mxGeometry width="50" height="50" relative="1" as="geometry">
            <mxPoint x="150" y="40" as="sourcePoint" />
            <mxPoint x="190" y="40" as="targetPoint" />
            <Array as="points">
              <mxPoint x="157.5" y="20" />
              <mxPoint x="182.5" y="20" />
            </Array>
          </mxGeometry>
        </mxCell>
        <mxCell id="ScXmN28w3UK9h5KrgkOw-384" value="" style="endArrow=classic;html=1;rounded=0;curved=1;entryX=0.5;entryY=0;entryDx=0;entryDy=0;fillColor=#f8cecc;strokeColor=#000000;exitX=0.25;exitY=0;exitDx=0;exitDy=0;startArrow=none;startFill=0;" parent="1" edge="1">
          <mxGeometry width="50" height="50" relative="1" as="geometry">
            <mxPoint x="149" y="40" as="sourcePoint" />
            <mxPoint x="210" y="40" as="targetPoint" />
            <Array as="points">
              <mxPoint x="157" y="10" />
              <mxPoint x="180" y="10" />
            </Array>
          </mxGeometry>
        </mxCell>
        <mxCell id="ScXmN28w3UK9h5KrgkOw-385" value="" style="endArrow=classic;html=1;rounded=0;curved=1;entryX=0.5;entryY=0;entryDx=0;entryDy=0;fillColor=#f8cecc;strokeColor=#000000;exitX=0.25;exitY=0;exitDx=0;exitDy=0;startArrow=none;startFill=0;" parent="1" edge="1">
          <mxGeometry width="50" height="50" relative="1" as="geometry">
            <mxPoint x="148" y="40" as="sourcePoint" />
            <mxPoint x="230" y="40" as="targetPoint" />
            <Array as="points">
              <mxPoint x="150" />
              <mxPoint x="200" y="10" />
            </Array>
          </mxGeometry>
        </mxCell>
      </root>
    </mxGraphModel>
  </diagram>
</mxfile>
